<?xml version="1.0" standalone="no"?>
<!DOCTYPE svg PUBLIC "-//W3C//DTD SVG 20010904//EN"
 "http://www.w3.org/TR/2001/REC-SVG-20010904/DTD/svg10.dtd">
<svg version="1.0" xmlns="http://www.w3.org/2000/svg"
 width="405.000000pt" height="405.000000pt" viewBox="0 0 405.000000 405.000000"
 preserveAspectRatio="xMidYMid meet">

<g transform="translate(0.000000,405.000000) scale(0.100000,-0.100000)"
fill="#000000" stroke="none">
<path d="M1800 3955 c-424 -54 -789 -322 -972 -711 -42 -90 -67 -168 -95 -294
-21 -92 -23 -365 -4 -455 36 -173 109 -354 192 -477 64 -93 159 -199 172 -192
7 4 9 3 4 -1 -4 -5 5 -21 20 -37 28 -29 55 -40 33 -13 -9 10 -9 15 -1 15 10 0
15 -13 12 -32 -1 -13 77 -68 98 -68 12 0 21 3 21 8 0 11 -70 56 -77 49 -3 -4
6 -12 21 -18 14 -7 26 -16 26 -21 0 -10 -56 27 -66 44 -4 7 -3 8 4 4 26 -16 7
6 -84 97 -53 53 -100 94 -105 92 -4 -3 -11 0 -15 6 -4 8 -3 9 4 5 15 -9 15 -3
0 29 -6 14 -15 25 -20 25 -12 0 -10 -14 4 -28 6 -6 9 -14 6 -17 -3 -3 -13 6
-22 20 -9 14 -12 25 -6 25 5 0 10 5 10 11 0 6 -6 9 -13 6 -8 -3 -13 2 -13 12
1 9 -2 16 -5 16 -17 0 -39 30 -34 46 4 11 -2 31 -14 48 -12 16 -21 34 -21 40
0 5 -13 38 -29 73 -16 35 -32 76 -36 92 -5 24 -8 27 -16 15 -7 -9 -8 -2 -3 24
5 28 3 37 -7 37 -12 0 -12 2 -1 9 12 7 12 10 0 21 -8 8 -12 26 -10 45 2 18 -2
43 -8 56 -14 24 -20 287 -8 291 9 4 31 120 32 170 1 20 5 36 10 35 11 -2 28
55 29 95 0 19 4 25 15 20 12 -4 14 1 10 21 -3 16 -1 27 6 27 6 1 22 24 35 53
13 29 30 59 38 69 10 11 11 18 3 23 -5 3 -7 11 -4 17 4 6 10 5 16 -3 7 -10 8
-8 3 8 -3 12 -1 25 6 29 8 4 9 3 5 -4 -4 -7 -2 -12 3 -12 6 0 11 7 11 15 0 8
5 15 10 15 6 0 10 5 10 11 0 5 -5 7 -12 3 -6 -4 -3 4 8 18 10 14 21 24 23 22
2 -2 -2 -10 -9 -19 -8 -9 -8 -15 -2 -15 6 0 14 10 18 23 3 12 22 35 40 50 19
16 34 33 34 39 0 6 -10 3 -22 -8 -21 -17 -21 -16 1 9 24 27 38 36 26 17 -11
-19 6 -10 31 15 23 23 22 35 -2 18 -5 -5 -1 0 9 9 11 10 23 15 28 12 5 -3 9 1
9 9 0 14 34 49 60 61 8 4 0 -6 -19 -23 -19 -17 -33 -33 -30 -35 8 -8 89 70 89
85 0 12 2 12 9 0 5 -8 11 -9 15 -3 3 6 31 23 61 38 30 16 55 34 55 42 0 9 7
11 20 7 14 -4 20 -2 20 8 0 10 7 13 20 10 11 -3 20 0 20 6 0 6 9 11 20 11 11
0 28 4 38 9 9 5 37 15 62 21 25 7 51 14 58 16 7 2 11 8 7 13 -3 6 13 8 45 4
39 -4 50 -3 50 8 0 12 37 14 204 14 112 0 202 -3 200 -7 -6 -9 37 -21 57 -17
8 2 25 -3 38 -10 12 -7 32 -11 42 -8 10 3 19 1 19 -5 0 -6 7 -7 16 -4 10 4 13
2 8 -6 -5 -8 2 -9 22 -5 17 3 36 1 44 -4 11 -8 9 -9 -9 -4 -17 5 -21 4 -16 -5
4 -6 19 -10 33 -8 17 2 26 -2 24 -10 -1 -6 7 -12 18 -12 11 0 20 -4 20 -10 0
-5 8 -10 18 -10 14 0 15 2 2 10 -9 6 -10 10 -3 10 7 0 17 -9 23 -20 6 -11 15
-20 21 -20 6 0 7 5 3 12 -4 7 -3 8 4 4 7 -4 12 -14 12 -22 0 -8 5 -14 11 -14
5 0 7 5 4 10 -3 6 -1 10 5 10 6 0 14 -8 17 -17 9 -25 35 -43 52 -38 7 3 20 0
28 -6 7 -7 16 -9 19 -6 17 17 -216 140 -341 180 -198 63 -357 78 -555 52z
m167 -11 c-3 -3 -12 -4 -19 -1 -8 3 -5 6 6 6 11 1 17 -2 13 -5z m56 -1 c-7 -2
-19 -2 -25 0 -7 3 -2 5 12 5 14 0 19 -2 13 -5z m617 -193 c0 -5 -2 -10 -4 -10
-3 0 -8 5 -11 10 -3 6 -1 10 4 10 6 0 11 -4 11 -10z m-1739 -413 c-10 -9 -11
-8 -5 6 3 10 9 15 12 12 3 -3 0 -11 -7 -18z m-33 -62 c-6 -14 -13 -23 -15 -21
-5 5 15 46 22 46 3 0 -1 -11 -7 -25z m214 -1420 c11 -19 10 -19 -8 -5 -28 22
-74 74 -74 84 0 12 68 -54 82 -79z m54 -62 c-7 -7 -26 7 -26 19 0 6 6 6 15 -2
9 -7 13 -15 11 -17z"/>
<path d="M1837 3822 c-22 -24 -21 -55 1 -75 23 -21 36 -21 56 -1 23 22 20 60
-6 78 -28 20 -31 20 -51 -2z m41 -31 c2 -12 1 -30 -3 -39 -5 -14 -7 -14 -15
-2 -15 23 -12 72 3 68 6 -3 13 -15 15 -27z"/>
<path d="M1940 3798 c0 -53 10 -65 52 -60 33 4 33 4 30 53 -3 34 -8 49 -18 49
-10 0 -14 -12 -14 -39 0 -54 -18 -62 -22 -10 -4 59 -28 64 -28 7z"/>
<path d="M2132 3814 c-44 -30 -13 -109 34 -90 18 8 18 9 -3 17 -17 6 -23 16
-23 39 0 16 5 30 10 30 6 0 10 -7 10 -15 0 -8 7 -15 15 -15 19 0 19 14 -1 34
-19 19 -15 19 -42 0z"/>
<path d="M1774 3795 c6 -30 -14 -34 -21 -5 -4 13 -14 20 -30 20 l-24 0 31 -44
c36 -53 40 -80 10 -71 -21 7 -28 -9 -9 -21 18 -11 35 17 52 84 13 53 13 62 1
62 -10 0 -13 -8 -10 -25z"/>
<path d="M2221 3786 c-9 -11 -9 -16 0 -21 8 -6 7 -10 -5 -17 -18 -10 -22 -37
-6 -39 6 -1 14 -2 19 -3 5 0 13 -4 17 -8 17 -18 32 -5 38 33 7 45 -5 69 -34
69 -10 0 -23 -6 -29 -14z m35 -23 c-10 -10 -19 5 -10 18 6 11 8 11 12 0 2 -7
1 -15 -2 -18z m-10 -40 c-10 -10 -19 5 -10 18 6 11 8 11 12 0 2 -7 1 -15 -2
-18z"/>
<path d="M1610 3754 c0 -14 4 -23 10 -19 6 3 10 15 10 26 0 10 -4 19 -10 19
-5 0 -10 -12 -10 -26z"/>
<path d="M1558 3762 c-24 -5 -24 -5 17 -49 36 -39 46 -70 20 -60 -20 8 -28 -8
-11 -23 12 -9 17 -7 25 9 14 25 14 81 1 81 -5 0 -15 10 -22 23 -8 14 -20 21
-30 19z"/>
<path d="M2320 3728 c-16 -56 -16 -52 3 -56 11 -2 17 3 17 15 0 23 26 61 35
51 4 -3 -1 -20 -10 -37 -9 -18 -13 -36 -10 -41 11 -18 33 -10 38 13 3 12 8 32
12 44 6 18 1 24 -30 37 -21 9 -38 16 -40 16 -1 0 -8 -19 -15 -42z"/>
<path d="M1477 3738 c-8 -29 30 -100 50 -96 9 2 18 9 21 17 3 8 0 11 -6 8 -11
-8 -37 47 -29 60 3 5 -3 14 -13 20 -15 10 -19 8 -23 -9z"/>
<path d="M1395 3731 c-7 -12 12 -24 25 -16 11 7 4 25 -10 25 -5 0 -11 -4 -15
-9z"/>
<path d="M2506 3724 c-9 -24 -7 -28 8 -15 10 9 16 9 21 1 7 -12 -35 -100 -47
-100 -17 0 -6 -18 18 -28 14 -7 23 -8 20 -3 -6 9 39 97 55 107 5 3 13 -5 17
-17 6 -16 11 -19 16 -10 10 15 4 21 -55 55 -41 23 -47 24 -53 10z"/>
<path d="M2661 3724 c1 -17 60 -56 75 -50 12 5 15 2 10 -10 -4 -11 -2 -15 8
-11 15 6 40 -16 30 -26 -3 -3 5 -17 19 -31 28 -28 48 -36 27 -11 -10 11 -10
15 0 15 20 0 8 15 -55 69 -33 28 -66 49 -74 46 -7 -3 -20 0 -27 6 -8 6 -14 8
-13 3z m64 -34 c3 -5 1 -10 -4 -10 -6 0 -11 5 -11 10 0 6 2 10 4 10 3 0 8 -4
11 -10z m90 -71 c11 -17 -1 -21 -15 -4 -8 9 -8 15 -2 15 6 0 14 -5 17 -11z"/>
<path d="M1338 3694 c-3 -3 9 -28 28 -56 19 -27 34 -54 34 -59 0 -6 9 -5 21 2
21 11 21 11 1 32 -10 12 -27 37 -38 55 -17 30 -33 39 -46 26z"/>
<path d="M1417 3694 c-4 -4 15 -46 38 -82 1 -1 9 0 18 4 14 5 13 11 -10 45
-25 38 -34 45 -46 33z"/>
<path d="M1843 3663 c9 -2 25 -2 35 0 9 3 1 5 -18 5 -19 0 -27 -2 -17 -5z"/>
<path d="M2053 3663 c9 -2 23 -2 30 0 6 3 -1 5 -18 5 -16 0 -22 -2 -12 -5z"/>
<path d="M1788 3653 c7 -3 16 -2 19 1 4 3 -2 6 -13 5 -11 0 -14 -3 -6 -6z"/>
<path d="M2118 3653 c7 -3 16 -2 19 1 4 3 -2 6 -13 5 -11 0 -14 -3 -6 -6z"/>
<path d="M1715 3640 c-13 -5 -14 -9 -5 -9 8 0 24 4 35 9 13 5 14 9 5 9 -8 0
-24 -4 -35 -9z"/>
<path d="M2168 3643 c6 -2 18 -2 25 0 6 3 1 5 -13 5 -14 0 -19 -2 -12 -5z"/>
<path d="M2760 3640 c0 -5 5 -10 11 -10 5 0 7 5 4 10 -3 6 -8 10 -11 10 -2 0
-4 -4 -4 -10z"/>
<path d="M1625 3611 c-22 -11 -35 -19 -30 -19 14 -1 93 36 80 37 -5 0 -28 -8
-50 -18z"/>
<path d="M2255 3620 c27 -12 43 -12 25 0 -8 5 -22 9 -30 9 -10 0 -8 -3 5 -9z"/>
<path d="M1280 3605 c-14 -17 -5 -50 11 -40 6 4 8 13 5 21 -3 8 1 14 9 14 17
0 20 -26 5 -35 -19 -12 -11 -45 10 -45 11 0 20 5 20 10 0 6 6 10 14 10 26 0
28 20 4 50 -25 32 -59 38 -78 15z m60 -45 c0 -5 -4 -10 -10 -10 -5 0 -10 5
-10 10 0 6 5 10 10 10 6 0 10 -4 10 -10z"/>
<path d="M2610 3611 c0 -4 -12 -21 -26 -36 -18 -19 -22 -31 -15 -38 8 -8 19
-3 39 16 22 21 31 24 40 15 23 -23 24 2 1 27 -25 25 -39 32 -39 16z"/>
<path d="M2310 3600 c8 -5 20 -10 25 -10 6 0 3 5 -5 10 -8 5 -19 10 -25 10 -5
0 -3 -5 5 -10z"/>
<path d="M2843 3578 c1 -23 47 -79 47 -58 0 6 4 9 10 5 5 -3 7 -12 3 -20 -3
-8 -1 -15 5 -15 18 0 7 35 -23 72 -35 44 -44 47 -42 16z m35 -28 c7 -11 11
-20 9 -20 -2 0 -12 9 -22 20 -10 11 -14 20 -9 20 5 0 15 -9 22 -20z"/>
<path d="M1518 3564 c-27 -13 -48 -27 -48 -29 0 -5 99 42 109 51 13 11 -20 0
-61 -22z"/>
<path d="M2337 3563 c-9 -10 -17 -12 -17 -6 0 23 -50 -12 -68 -48 -14 -29 -22
-35 -34 -28 -10 6 -14 17 -11 29 9 32 24 35 18 3 -4 -24 -3 -23 9 7 20 49 19
53 -8 35 -36 -24 -42 -62 -14 -86 l23 -19 -27 11 c-23 10 -28 19 -28 48 l-1
36 -24 -28 c-26 -29 -32 -61 -15 -72 6 -3 10 -11 10 -17 0 -7 -6 -6 -15 2 -8
7 -15 29 -16 49 l-1 36 -8 -35 c-5 -21 -5 -40 1 -47 8 -8 5 -10 -10 -6 -12 3
-21 11 -21 17 0 6 -9 12 -20 13 -13 1 -20 -4 -20 -16 0 -10 -3 -20 -6 -24 -10
-9 -34 4 -34 19 0 17 -4 17 -58 1 -23 -7 -39 -17 -35 -22 4 -4 0 -5 -9 -2 -11
4 -29 -6 -53 -29 -25 -23 -46 -34 -66 -34 -33 0 -89 -25 -89 -40 0 -5 6 -15
13 -22 7 -7 12 -20 12 -28 0 -8 2 -17 5 -20 3 -3 16 -18 28 -34 15 -20 22 -24
22 -12 0 9 5 16 10 16 13 0 13 -6 -5 -41 -10 -18 -21 -27 -28 -23 -8 5 -9 4
-2 -4 13 -15 52 -4 60 15 5 14 3 14 -11 2 -16 -13 -16 -12 -5 9 7 12 9 32 6
43 -9 28 13 86 41 108 77 60 210 15 190 -65 -4 -14 -2 -24 4 -24 5 0 10 -9 10
-20 0 -11 5 -20 10 -20 19 0 10 -16 -21 -34 -45 -27 -119 -44 -152 -35 -15 4
-25 3 -22 -1 3 -5 25 -12 49 -15 32 -5 52 -2 77 11 38 20 83 28 74 13 -11 -17
12 -9 31 12 10 11 26 18 36 16 9 -3 18 -1 20 5 2 5 16 2 33 -6 32 -17 44 -14
27 7 -7 8 -25 13 -41 12 -21 -1 -28 2 -24 12 3 7 -1 13 -8 13 -10 1 -9 5 4 14
19 15 23 36 6 36 -6 0 -17 7 -25 15 -9 8 -24 15 -35 15 -25 0 -25 38 0 89 16
31 27 39 56 44 20 3 47 1 59 -5 17 -7 30 -7 45 2 19 10 20 14 9 28 -11 14 -10
15 7 8 36 -15 65 -18 65 -8 0 6 -8 13 -19 17 -10 3 -26 14 -35 24 -15 17 -15
20 3 42 11 13 20 20 21 15 0 -5 7 -2 17 5 14 12 15 12 11 -1 -3 -8 1 -23 10
-32 8 -10 10 -18 5 -18 -6 0 -16 7 -23 15 -7 8 -18 15 -24 14 -7 0 -6 -2 2 -6
6 -2 12 -9 12 -14 0 -4 -7 -6 -15 -3 -27 11 -16 -5 15 -21 34 -17 70 -20 70
-4 0 5 5 7 10 4 6 -3 10 -1 10 4 0 6 -5 11 -11 11 -6 0 -21 8 -34 18 l-24 19
25 26 c27 29 19 38 -9 10z m-160 -94 c12 -14 12 -17 -2 -23 -25 -9 -32 0 -27
36 3 18 7 26 10 18 2 -8 11 -22 19 -31z m-87 -303 c0 -3 -4 -8 -10 -11 -5 -3
-10 -1 -10 4 0 6 5 11 10 11 6 0 10 -2 10 -4z"/>
<path d="M2380 3560 c0 -5 7 -10 16 -10 8 0 12 5 9 10 -3 6 -10 10 -16 10 -5
0 -9 -4 -9 -10z"/>
<path d="M1213 3549 c-9 -9 -4 -18 18 -36 16 -14 26 -29 23 -35 -4 -5 -19 3
-35 18 -22 21 -32 25 -41 16 -6 -6 -10 -13 -7 -14 2 -2 19 -16 36 -32 l33 -29
25 27 26 28 -28 33 c-32 38 -35 39 -50 24z"/>
<path d="M2666 3524 l-29 -35 29 -30 30 -29 34 35 c26 27 31 38 22 47 -9 9
-19 5 -42 -17 -37 -36 -53 -25 -18 13 14 15 23 33 21 40 -7 18 -15 14 -47 -24z"/>
<path d="M2416 3543 c-3 -3 -3 -10 0 -14 7 -12 34 -11 34 0 0 11 -26 22 -34
14z"/>
<path d="M2362 3531 c-11 -6 -6 -14 18 -31 38 -27 49 -21 23 14 -20 28 -22 29
-41 17z"/>
<path d="M1410 3498 c-68 -48 -166 -145 -222 -221 -28 -37 -48 -70 -46 -73 3
-2 21 19 40 48 52 78 131 162 209 220 59 43 78 60 67 58 -2 -1 -23 -15 -48
-32z"/>
<path d="M2475 3516 c11 -9 51 -39 88 -68 71 -54 166 -163 213 -243 14 -25 28
-45 31 -45 11 0 -54 99 -110 168 -57 70 -166 166 -217 191 -24 11 -24 11 -5
-3z"/>
<path d="M2923 3488 c-1 -12 9 -34 22 -50 14 -16 25 -24 25 -18 0 6 5 8 11 5
6 -4 8 -14 5 -22 -7 -17 17 -56 28 -46 4 4 11 1 16 -7 15 -23 12 -34 -5 -20
-13 11 -14 10 -9 -4 4 -10 13 -15 20 -12 8 3 18 -4 24 -14 6 -12 7 -20 1 -20
-5 0 -12 6 -14 13 -3 7 -6 5 -6 -5 -1 -10 5 -18 13 -18 8 0 18 -5 22 -12 4 -7
3 -8 -4 -4 -16 10 -15 1 3 -35 9 -16 20 -27 24 -24 5 3 7 -4 4 -15 -3 -11 -2
-28 1 -37 6 -15 8 -15 17 -3 7 11 8 4 3 -21 -3 -22 -2 -39 5 -43 6 -4 11 -18
11 -31 0 -13 4 -34 9 -47 6 -13 13 -45 16 -72 4 -27 10 -45 13 -39 11 17 3
-296 -9 -357 -6 -30 -8 -72 -5 -92 5 -39 -9 -63 -17 -31 -4 14 -5 13 -6 -4 0
-13 -10 -46 -21 -75 -24 -63 -25 -80 -3 -53 l16 20 -8 -20 c-16 -44 -16 -49 0
-21 9 15 15 36 12 46 -3 10 1 21 8 24 13 5 25 48 28 103 1 17 6 35 10 39 4 4
5 24 2 43 -4 26 -3 30 3 16 6 -12 8 36 7 125 -2 140 -2 141 4 35 l7 -110 2
138 c1 89 -2 136 -8 132 -6 -4 -7 5 -4 24 4 16 1 54 -5 83 -7 29 -14 63 -17
76 -3 13 -9 20 -15 16 -7 -4 -9 0 -5 13 15 48 -86 269 -189 411 -34 48 -40 50
-42 20z m47 -48 c0 -5 -2 -10 -4 -10 -3 0 -8 5 -11 10 -3 6 -1 10 4 10 6 0 11
-4 11 -10z m40 -61 c0 -6 -4 -7 -10 -4 -5 3 -10 11 -10 16 0 6 5 7 10 4 6 -3
10 -11 10 -16z m139 -304 c0 -5 -4 -3 -9 5 -5 8 -9 22 -9 30 0 16 17 -16 18
-35z m28 -597 c-3 -8 -6 -5 -6 6 -1 11 2 17 5 13 3 -3 4 -12 1 -19z"/>
<path d="M1450 3479 c1 -15 23 -49 33 -49 10 0 -5 39 -19 51 -11 9 -14 8 -14
-2z"/>
<path d="M1480 3485 c0 -12 24 -55 32 -55 11 0 10 4 -4 35 -9 21 -28 35 -28
20z"/>
<path d="M1553 3478 c3 -10 2 -18 -3 -18 -6 0 -10 5 -10 10 0 6 -5 10 -10 10
-7 0 -7 -8 1 -22 10 -18 8 -24 -7 -36 -18 -13 -18 -14 4 -7 12 3 22 2 22 -3 0
-5 -10 -12 -22 -15 -12 -4 -19 -9 -16 -12 7 -7 46 11 66 32 16 15 8 45 -15 65
-15 11 -16 11 -10 -4z m17 -48 c0 -5 -4 -10 -10 -10 -5 0 -10 5 -10 10 0 6 5
10 10 10 6 0 10 -4 10 -10z"/>
<path d="M1605 3453 c4 -21 11 -41 17 -44 5 -3 -2 -15 -16 -25 l-26 -19 25 -1
c14 -1 23 2 20 6 -3 4 2 11 11 14 13 5 14 9 4 21 -7 9 -10 19 -6 22 4 4 11 2
15 -6 7 -10 9 -10 13 1 7 18 -23 62 -46 66 -16 3 -18 -1 -11 -35z"/>
<path d="M1083 3470 c-47 -19 -56 -78 -17 -117 22 -22 30 -24 72 -18 26 3 57
13 70 21 28 18 30 39 2 24 -11 -6 -20 -9 -21 -8 0 2 -2 16 -3 32 -1 17 -13 38
-29 52 -30 26 -40 28 -74 14z m56 -46 c34 -29 38 -45 16 -64 -12 -10 -21 -8
-46 6 -39 23 -54 46 -46 68 9 24 41 20 76 -10z"/>
<path d="M1670 3466 c0 -8 5 -18 10 -21 6 -3 10 1 10 9 0 8 -4 18 -10 21 -5 3
-10 -1 -10 -9z"/>
<path d="M2766 3455 c-10 -11 -14 -25 -10 -41 4 -14 2 -24 -5 -24 -6 0 -11 10
-11 22 0 16 -3 19 -11 11 -8 -8 -8 -17 0 -32 22 -40 60 -19 62 34 1 29 1 29 8
5 5 -18 9 -21 15 -11 5 8 1 20 -11 33 -19 18 -21 18 -37 3z"/>
<path d="M1392 3445 c-11 -13 -10 -15 6 -15 10 0 23 -5 30 -12 9 -9 15 -9 23
-1 8 8 4 15 -12 27 -28 19 -30 19 -47 1z"/>
<path d="M1579 3393 c-13 -16 -12 -17 4 -4 16 13 21 21 13 21 -2 0 -10 -8 -17
-17z"/>
<path d="M2810 3374 c-31 -31 -36 -64 -10 -64 6 0 9 4 5 9 -3 5 7 19 21 30 22
17 30 19 42 9 13 -11 15 -10 9 6 -5 11 -3 22 4 26 6 4 1 9 -13 12 -18 3 -33
-4 -58 -28z"/>
<path d="M2170 3330 c0 -5 7 -10 15 -10 8 0 15 5 15 10 0 6 -7 10 -15 10 -8 0
-15 -4 -15 -10z"/>
<path d="M2265 3270 c-3 -5 -2 -10 4 -10 5 0 13 5 16 10 3 6 2 10 -4 10 -5 0
-13 -4 -16 -10z"/>
<path d="M1917 3264 c-9 -10 2 -24 19 -24 8 0 14 7 14 15 0 15 -21 21 -33 9z"/>
<path d="M2256 3222 c-22 -19 -42 -36 -44 -37 -10 -9 21 -43 44 -48 22 -4 25
-2 20 17 -4 16 2 12 24 -14 34 -42 46 -36 25 13 -15 36 -15 37 12 51 36 20 21
21 -17 1 -22 -11 -30 -12 -33 -2 -4 9 -8 8 -16 -3 -6 -8 -11 -10 -11 -4 0 12
42 54 55 54 4 0 0 -10 -11 -21 -19 -22 -19 -22 1 -11 11 6 28 17 39 25 17 13
16 14 -14 14 -22 0 -45 -11 -74 -35z"/>
<path d="M1681 3211 c-11 -7 -9 -14 13 -36 26 -26 26 -28 10 -46 -9 -10 -12
-19 -6 -19 18 0 36 40 23 53 -20 20 -12 31 9 12 24 -22 26 -8 4 23 -16 24 -31
27 -53 13z"/>
<path d="M2367 3206 c-4 -10 -1 -13 9 -9 15 6 19 23 5 23 -5 0 -11 -7 -14 -14z"/>
<path d="M1640 3192 c0 -5 9 -17 20 -27 12 -10 18 -25 15 -33 -5 -12 -3 -13
10 -2 14 12 13 16 -11 42 -30 30 -34 33 -34 20z"/>
<path d="M2428 3193 c7 -3 16 -2 19 1 4 3 -2 6 -13 5 -11 0 -14 -3 -6 -6z"/>
<path d="M1610 3183 c0 -4 10 -18 23 -31 l22 -24 -25 7 c-14 4 -31 10 -37 12
-8 3 -13 -3 -13 -14 0 -16 6 -19 30 -18 45 3 57 19 36 49 -15 24 -36 35 -36
19z"/>
<path d="M2330 3181 c0 -24 37 -71 55 -71 11 0 31 -7 43 -16 22 -15 22 -15 22
27 0 23 -3 39 -7 36 -3 -4 -12 -2 -19 4 -11 9 -11 4 -4 -23 9 -30 8 -31 -5
-14 -14 18 -19 39 -16 59 1 10 -7 9 -30 -3 -13 -7 -19 -7 -19 0 0 5 -4 10 -10
10 -5 0 -10 -4 -10 -9z m60 -21 c0 -5 -4 -10 -10 -10 -5 0 -10 5 -10 10 0 6 5
10 10 10 6 0 10 -4 10 -10z"/>
<path d="M2460 3160 c0 -5 12 -10 28 -9 24 0 25 1 7 9 -27 12 -35 12 -35 0z"/>
<path d="M1106 3143 c-6 -14 -5 -15 5 -6 7 7 10 15 7 18 -3 3 -9 -2 -12 -12z"/>
<path d="M2080 3115 c-13 -14 -19 -25 -13 -25 5 0 20 11 33 25 13 14 19 25 13
25 -5 0 -20 -11 -33 -25z"/>
<path d="M2475 3120 c10 -11 23 -20 28 -20 6 0 2 9 -8 20 -10 11 -23 20 -28
20 -6 0 -2 -9 8 -20z"/>
<path d="M2821 3125 c0 -5 8 -26 19 -45 11 -19 19 -30 19 -25 0 6 -8 26 -19
45 -11 19 -19 31 -19 25z"/>
<path d="M1086 3105 c-9 -26 -7 -32 5 -12 6 10 9 21 6 23 -2 3 -7 -2 -11 -11z"/>
<path d="M2100 3100 c-14 -10 -21 -22 -17 -26 4 -4 17 1 28 12 22 19 22 19 17
-8 -4 -19 0 -28 12 -31 13 -3 17 2 17 24 0 17 -6 29 -13 29 -7 0 -14 4 -16 10
-1 5 -14 1 -28 -10z"/>
<path d="M1046 3005 c-3 -9 -6 -22 -5 -28 0 -7 5 -1 10 12 5 13 8 26 5 28 -2
2 -6 -3 -10 -12z"/>
<path d="M1026 2929 c-8 -42 0 -50 9 -9 4 17 5 34 2 36 -2 3 -7 -10 -11 -27z"/>
<path d="M2891 2924 c0 -11 3 -14 6 -6 3 7 2 16 -1 19 -3 4 -6 -2 -5 -13z"/>
<path d="M2901 2874 c0 -11 3 -14 6 -6 3 7 2 16 -1 19 -3 4 -6 -2 -5 -13z"/>
<path d="M1218 2853 c-9 -3 -15 -10 -12 -18 3 -7 -18 -58 -45 -114 -28 -56
-47 -101 -42 -101 6 0 19 20 30 45 13 29 26 45 38 45 15 0 15 2 4 9 -13 8 -12
15 4 50 10 23 21 41 25 41 7 0 30 -60 30 -78 0 -7 -10 -13 -22 -13 -18 -1 -17
-3 7 -8 25 -5 31 -13 43 -53 10 -35 17 -46 28 -41 9 3 13 12 9 22 -4 9 -22 60
-40 114 -18 54 -35 100 -37 101 -1 1 -11 1 -20 -1z"/>
<path d="M2354 2852 c4 -7 13 -12 21 -12 7 0 16 -6 18 -12 3 -8 6 -6 6 5 1 9
-3 17 -8 17 -5 0 -17 3 -27 7 -12 4 -15 3 -10 -5z"/>
<path d="M1490 2841 c0 -5 5 -13 11 -17 21 -13 59 -115 59 -159 0 -32 4 -45
14 -45 11 0 14 14 14 56 -1 49 4 63 40 115 23 32 36 59 29 59 -7 0 -25 -25
-42 -55 -16 -30 -32 -55 -35 -55 -3 0 -15 24 -26 53 -15 37 -28 53 -43 55 -11
2 -21 -1 -21 -7z"/>
<path d="M1850 2841 c0 -6 5 -13 10 -16 6 -3 10 -46 10 -94 0 -67 4 -92 15
-101 20 -17 90 -16 111 1 13 11 17 11 25 -3 6 -10 17 -14 30 -11 14 4 17 9 10
16 -7 7 -11 54 -11 114 0 85 -3 103 -15 103 -12 0 -15 -17 -15 -93 0 -106 -11
-127 -68 -127 -50 0 -64 31 -60 134 3 84 2 86 -19 86 -13 0 -23 -4 -23 -9z"/>
<path d="M2307 2832 c-10 -10 -17 -31 -17 -45 0 -21 9 -31 40 -47 51 -26 75
-61 61 -89 -16 -28 -48 -36 -76 -17 -16 11 -26 12 -30 5 -9 -14 -6 -16 35 -23
26 -5 44 -1 68 14 29 18 33 25 30 57 -3 32 -9 40 -47 62 -59 35 -70 54 -47 80
11 12 15 21 9 21 -5 0 -17 -8 -26 -18z"/>
<path d="M2644 2834 c3 -9 6 -62 6 -120 0 -85 3 -102 14 -98 15 6 23 87 18
182 -3 45 -6 52 -24 52 -14 0 -18 -5 -14 -16z"/>
<path d="M2798 2798 c-5 -91 3 -179 15 -175 8 2 13 42 15 115 2 94 0 112 -12
112 -11 0 -16 -14 -18 -52z"/>
<path d="M2913 2795 c0 -27 2 -38 4 -22 2 15 2 37 0 50 -2 12 -4 0 -4 -28z"/>
<path d="M1003 2715 c0 -38 2 -53 4 -32 2 20 2 52 0 70 -2 17 -4 1 -4 -38z"/>
<path d="M2913 2645 c0 -27 2 -38 4 -22 2 15 2 37 0 50 -2 12 -4 0 -4 -28z"/>
<path d="M1012 2590 c0 -14 2 -19 5 -12 2 6 2 18 0 25 -3 6 -5 1 -5 -13z"/>
<path d="M1980 2586 c0 -2 7 -7 16 -10 8 -3 12 -2 9 4 -6 10 -25 14 -25 6z"/>
<path d="M1835 2560 c-3 -6 1 -7 9 -4 18 7 21 14 7 14 -6 0 -13 -4 -16 -10z"/>
<path d="M2025 2560 c3 -5 8 -10 11 -10 2 0 4 5 4 10 0 6 -5 10 -11 10 -5 0
-7 -4 -4 -10z"/>
<path d="M1021 2524 c0 -11 3 -14 6 -6 3 7 2 16 -1 19 -3 4 -6 -2 -5 -13z"/>
<path d="M1659 2473 c-13 -16 -12 -17 4 -4 9 7 17 15 17 17 0 8 -8 3 -21 -13z"/>
<path d="M1041 2450 c0 -8 4 -22 9 -30 12 -18 12 -2 0 25 -6 13 -9 15 -9 5z"/>
<path d="M2265 2440 c10 -11 20 -20 23 -20 3 0 -3 9 -13 20 -10 11 -20 20 -23
20 -3 0 3 -9 13 -20z"/>
<path d="M1544 2428 l-19 -23 23 19 c12 11 22 21 22 23 0 8 -8 2 -26 -19z"/>
<path d="M2865 2420 c-4 -12 -5 -24 -2 -27 3 -2 8 5 12 17 4 12 5 24 2 27 -3
2 -8 -5 -12 -17z"/>
<path d="M1061 2390 c0 -15 38 -91 39 -79 0 4 -9 26 -20 50 -11 24 -19 37 -19
29z"/>
<path d="M2846 2365 c-9 -26 -7 -32 5 -12 6 10 9 21 6 23 -2 3 -7 -2 -11 -11z"/>
<path d="M2826 2313 c-6 -14 -5 -15 5 -6 7 7 10 15 7 18 -3 3 -9 -2 -12 -12z"/>
<path d="M2806 2273 c-6 -14 -5 -15 5 -6 7 7 10 15 7 18 -3 3 -9 -2 -12 -12z"/>
<path d="M1126 2250 c38 -80 166 -231 238 -283 17 -12 -10 19 -60 68 -50 50
-108 117 -130 151 -61 96 -65 101 -48 64z"/>
<path d="M2759 2198 c-50 -77 -116 -150 -199 -219 -110 -91 -107 -96 5 -8 84
66 186 183 224 257 21 40 4 23 -30 -30z"/>
<path d="M3055 2172 c-61 -121 -123 -209 -204 -289 -19 -19 -31 -39 -27 -48 6
-16 -12 -31 -34 -27 -8 1 -33 -15 -55 -35 -22 -21 -53 -44 -68 -52 -15 -8 -27
-18 -27 -23 0 -4 -6 -8 -13 -8 -7 0 -23 -9 -35 -20 -12 -11 -25 -20 -30 -20
-4 0 -14 -6 -20 -12 -7 -7 -16 -13 -20 -14 -9 -1 -38 -12 -77 -29 -17 -8 -43
-19 -59 -25 -16 -6 -27 -12 -24 -15 12 -12 238 88 238 106 0 5 8 9 18 9 11 0
27 9 38 21 24 27 69 50 79 41 5 -4 5 -2 2 4 -7 12 39 64 56 64 6 0 0 -12 -14
-27 -18 -21 -14 -19 18 7 23 19 40 40 38 47 -3 7 2 10 12 6 12 -5 15 -2 10 9
-3 10 3 23 16 35 l22 18 -19 -22 c-11 -13 -15 -23 -10 -22 5 0 22 17 38 37 17
20 24 31 16 25 -21 -20 -32 -15 -18 7 7 11 19 18 26 15 7 -3 10 0 7 6 -9 13
14 41 27 33 5 -3 16 2 23 12 22 29 18 39 -5 13 -23 -29 -26 -18 -4 16 9 14 21
22 30 18 12 -4 14 0 9 20 -4 14 -2 28 4 31 6 4 11 2 11 -5 0 -14 29 21 30 35
0 6 -7 1 -15 -10 -19 -25 -19 -11 0 26 16 31 32 42 21 14 -3 -9 -2 -12 5 -9 5
4 7 15 4 26 -4 12 -2 19 5 17 7 -2 15 4 17 12 4 13 3 13 -6 0 -15 -21 -15 4 0
32 6 11 9 21 7 23 -2 2 -21 -31 -43 -73z"/>
<path d="M905 2080 c3 -5 8 -10 11 -10 2 0 4 5 4 10 0 6 -5 10 -11 10 -5 0 -7
-4 -4 -10z"/>
<path d="M1416 1925 c10 -8 23 -15 28 -15 6 0 1 7 -10 15 -10 8 -23 15 -28 15
-6 0 -1 -7 10 -15z"/>
<path d="M1520 1865 c36 -19 70 -34 75 -34 6 0 -19 15 -55 34 -35 19 -69 35
-75 35 -5 0 19 -16 55 -35z"/>
<path d="M2380 1860 c-9 -6 -10 -10 -3 -10 6 0 15 5 18 10 8 12 4 12 -15 0z"/>
<path d="M2310 1830 c-25 -10 -40 -19 -34 -19 14 -1 84 28 84 34 0 6 3 7 -50
-15z"/>
<path d="M1620 1820 c8 -5 20 -10 25 -10 6 0 3 5 -5 10 -8 5 -19 10 -25 10 -5
0 -3 -5 5 -10z"/>
<path d="M1698 1793 c7 -3 16 -2 19 1 4 3 -2 6 -13 5 -11 0 -14 -3 -6 -6z"/>
<path d="M2218 1793 c7 -3 16 -2 19 1 4 3 -2 6 -13 5 -11 0 -14 -3 -6 -6z"/>
<path d="M2380 1793 c0 -4 4 -15 10 -23 7 -11 2 -17 -21 -27 -22 -9 -29 -18
-29 -40 0 -60 43 -88 93 -60 12 6 23 12 24 13 7 2 -57 139 -66 142 -6 2 -11 0
-11 -5z m28 -75 c17 -17 15 -58 -3 -64 -21 -8 -45 14 -45 41 0 35 24 47 48 23z"/>
<path d="M1516 1771 c-21 -23 -15 -37 32 -76 30 -25 32 -30 18 -43 -13 -13
-18 -13 -40 2 -14 9 -26 23 -26 31 0 15 -12 20 -23 9 -11 -11 15 -52 40 -63
33 -15 47 -14 66 7 24 27 21 39 -19 76 -21 19 -34 39 -30 45 12 18 33 13 54
-14 22 -28 32 -32 32 -11 0 18 -47 56 -70 56 -9 0 -25 -9 -34 -19z"/>
<path d="M2128 1773 c6 -2 18 -2 25 0 6 3 1 5 -13 5 -14 0 -19 -2 -12 -5z"/>
<path d="M1848 1763 c6 -2 18 -2 25 0 6 3 1 5 -13 5 -14 0 -19 -2 -12 -5z"/>
<path d="M1968 1753 c6 -2 18 -2 25 0 6 3 1 5 -13 5 -14 0 -19 -2 -12 -5z"/>
<path d="M1657 1720 c-10 -12 -15 -25 -12 -31 4 -5 1 -26 -5 -45 -10 -30 -10
-39 4 -52 8 -9 19 -13 23 -9 3 4 2 12 -4 18 -15 15 6 79 25 79 11 0 12 3 3 14
-6 7 -9 21 -5 30 9 22 -8 20 -29 -4z"/>
<path d="M2285 1709 c-4 -6 -13 -8 -21 -5 -17 7 -17 -7 0 -63 7 -25 19 -47 26
-49 9 -3 11 1 7 11 -17 45 -18 84 -3 90 17 7 22 27 7 27 -6 0 -13 -5 -16 -11z"/>
<path d="M2054 1685 c6 -23 4 -25 -18 -19 -27 6 -56 -25 -56 -62 0 -30 46 -67
69 -55 9 5 22 6 30 3 11 -3 12 1 8 19 -4 13 -7 50 -7 82 0 46 -3 57 -16 57
-12 0 -15 -6 -10 -25z m-6 -47 c16 -16 15 -53 -2 -67 -17 -14 -46 10 -46 38 0
16 18 41 30 41 3 0 11 -5 18 -12z"/>
<path d="M1314 1665 c16 -13 33 -22 37 -19 5 3 9 1 9 -4 0 -6 14 -15 30 -21
18 -6 30 -6 30 0 0 5 -4 9 -10 9 -5 0 -32 14 -60 30 -62 36 -75 38 -36 5z"/>
<path d="M2139 1671 c-13 -11 -21 -23 -17 -27 5 -4 16 0 26 9 21 19 38 22 47
7 3 -5 -10 -17 -29 -27 -19 -9 -37 -22 -40 -29 -8 -21 24 -47 48 -39 12 4 29
7 39 8 16 1 18 7 12 47 -11 72 -39 89 -86 51z m49 -82 c-15 -10 -30 -7 -35 7
-2 6 7 15 19 21 18 8 24 7 26 -5 2 -8 -2 -18 -10 -23z"/>
<path d="M1213 1521 c-28 -86 -95 -291 -148 -456 -53 -165 -134 -415 -180
-555 -46 -140 -82 -256 -81 -257 2 -2 116 26 255 61 l253 64 28 -31 c16 -18
89 -100 162 -184 73 -83 135 -152 138 -152 3 -1 41 144 84 322 44 177 112 456
153 620 40 164 73 304 73 312 0 21 18 19 24 -2 2 -10 14 -56 25 -103 18 -78
116 -478 227 -928 60 -243 55 -232 83 -196 12 16 41 49 64 74 23 25 87 96 141
158 68 77 104 111 115 107 60 -18 486 -123 489 -120 3 3 -118 386 -198 625
-10 30 -55 170 -100 310 -124 384 -148 459 -155 469 -3 6 -22 -1 -43 -15 -100
-69 -264 -133 -422 -164 -102 -20 -133 -22 -280 -17 -139 5 -182 11 -278 36
-113 31 -317 121 -358 159 l-21 20 -50 -157z"/>
<path d="M1727 1673 c-16 -15 -5 -21 28 -16 28 4 35 2 35 -11 0 -12 -9 -16
-34 -16 -46 0 -65 -23 -41 -50 24 -27 81 -24 89 4 11 41 6 84 -10 90 -21 8
-59 8 -67 -1z m51 -79 c-9 -9 -24 -14 -32 -11 -27 11 -17 27 16 27 30 0 31 -1
16 -16z"/>
<path d="M1855 1652 c-8 -22 -6 -102 4 -102 4 0 11 19 14 41 6 48 17 62 41 53
14 -5 16 -14 11 -45 -8 -44 4 -74 16 -43 15 37 10 93 -9 103 -24 13 -71 9 -77
-7z"/>
<path d="M1435 1600 c3 -5 15 -10 26 -10 10 0 19 -4 19 -8 0 -8 114 -50 159
-59 14 -2 57 -11 96 -19 38 -9 124 -17 190 -19 l120 -3 -100 8 c-101 8 -197
22 -270 39 -89 21 -101 25 -178 60 -52 23 -72 27 -62 11z"/>
<path d="M2280 1538 c-19 -5 -49 -13 -66 -19 -17 -5 -46 -9 -65 -10 -19 -1
-45 -5 -59 -9 -19 -7 -12 -8 30 -8 50 1 214 39 228 52 8 9 -27 5 -68 -6z"/>
</g>
</svg>
