<?xml version="1.0" standalone="no"?>
<!DOCTYPE svg PUBLIC "-//W3C//DTD SVG 20010904//EN"
 "http://www.w3.org/TR/2001/REC-SVG-20010904/DTD/svg10.dtd">
<svg version="1.0" xmlns="http://www.w3.org/2000/svg"
 width="388.000000pt" height="384.000000pt" viewBox="0 0 388.000000 384.000000"
 preserveAspectRatio="xMidYMid meet">

<g transform="translate(0.000000,384.000000) scale(0.100000,-0.100000)"
fill="#000000" stroke="none">
<path d="M1750 3749 c-201 -23 -450 -86 -450 -114 0 -17 -32 -29 -40 -14 -9
14 -161 -52 -279 -123 -460 -273 -762 -697 -878 -1229 -25 -115 -27 -142 -27
-359 -1 -209 2 -248 23 -350 36 -177 129 -448 150 -436 4 3 16 -3 26 -14 16
-18 14 -25 -7 -21 -12 2 -10 -2 23 -65 89 -171 256 -379 409 -512 106 -92 288
-215 307 -208 8 3 11 1 8 -4 -8 -13 201 -113 314 -150 109 -35 105 -34 97 -15
-8 22 4 18 28 -8 18 -19 47 -28 156 -47 172 -30 458 -34 615 -7 200 34 368 87
544 174 345 169 622 434 805 768 63 114 120 251 111 265 -3 6 -2 10 4 10 21 0
88 253 76 290 -4 12 -2 20 5 20 7 0 10 6 7 14 -3 7 -1 18 5 24 17 17 23 362 9
479 -26 205 -78 389 -162 570 -22 48 -41 89 -44 91 -2 3 -12 -1 -20 -8 -14
-11 -14 -10 -6 12 8 22 3 37 -33 96 -184 298 -471 552 -793 703 -90 41 -119
45 -117 16 1 -9 -3 -14 -8 -11 -5 3 -7 16 -4 28 5 20 -3 25 -76 49 -61 19 -85
24 -95 15 -10 -8 -13 -7 -13 6 0 9 -3 16 -7 16 -5 0 -42 7 -83 16 -177 37
-424 51 -580 33z m502 -78 c64 -12 124 -18 134 -14 12 4 15 3 10 -5 -10 -16
16 -15 33 1 11 10 13 9 8 -5 -5 -13 5 -20 43 -33 27 -9 54 -14 60 -10 16 10
50 -4 50 -21 0 -8 6 -14 14 -14 28 0 243 -114 342 -181 115 -78 243 -187 320
-272 47 -51 52 -54 67 -39 9 9 20 12 24 8 4 -4 3 -10 -2 -14 -19 -14 -13 -47
14 -78 46 -51 135 -193 183 -289 84 -167 153 -384 173 -542 4 -29 11 -53 17
-53 5 0 7 -4 4 -9 -3 -5 -7 -103 -9 -217 -4 -221 -18 -327 -62 -469 -22 -72
-22 -75 -4 -80 11 -4 19 -14 19 -23 0 -12 -3 -13 -12 -4 -21 21 -34 13 -46
-26 -7 -21 -37 -89 -67 -151 -30 -62 -55 -114 -55 -117 0 -2 10 -4 23 -5 l22
0 -22 -9 c-13 -5 -23 -12 -23 -15 0 -4 5 -3 10 0 6 3 10 -2 10 -11 0 -16 -1
-16 -18 -1 -18 16 -21 13 -76 -67 -88 -130 -224 -279 -343 -378 -18 -15 -33
-34 -33 -42 0 -8 -6 -13 -12 -11 -7 3 -45 -17 -84 -45 -55 -38 -73 -57 -77
-80 -5 -22 -12 -30 -27 -30 l-21 0 21 22 c11 12 18 23 16 25 -2 2 -30 -11 -62
-30 -33 -18 -73 -39 -91 -47 -20 -9 -29 -19 -25 -28 4 -11 0 -13 -16 -8 -11 4
-37 0 -59 -9 -138 -60 -328 -107 -504 -126 -113 -12 -369 -7 -482 11 -38 5
-73 7 -79 4 -6 -4 -8 -3 -5 3 4 6 -18 15 -51 22 -90 20 -247 78 -369 137 -62
30 -122 54 -133 54 -11 0 -20 6 -20 13 0 7 -35 37 -77 67 -71 48 -182 139
-241 198 -13 12 -25 22 -27 22 -6 0 0 -29 8 -36 4 -4 7 -14 7 -22 0 -12 -4
-12 -20 3 -14 13 -18 26 -15 47 4 22 -2 37 -33 71 -56 62 -104 123 -160 204
-27 40 -53 69 -57 65 -5 -4 -5 -2 -1 5 4 7 -8 37 -25 68 -17 31 -50 100 -73
153 -34 82 -44 97 -61 94 -19 -4 -19 -3 -3 13 14 16 15 22 3 56 -52 147 -93
473 -79 628 5 55 4 72 -4 67 -7 -4 -12 -1 -12 9 0 9 4 14 9 11 5 -3 12 2 15
11 4 9 1 20 -6 24 -10 7 -10 11 0 21 17 17 15 28 -4 28 -10 0 -14 6 -11 14 3
7 1 18 -5 24 -6 6 -7 15 -3 22 5 8 13 6 27 -7 20 -18 20 -17 18 7 -2 14 2 36
7 50 6 14 8 31 6 38 -3 6 0 12 6 12 6 0 10 3 9 8 -1 4 8 38 20 76 13 38 21 75
18 82 -3 8 -1 14 5 14 5 0 15 14 21 32 21 58 115 243 163 318 71 112 146 204
256 313 54 53 94 97 87 97 -6 0 -5 6 3 17 12 15 12 16 -3 10 -21 -7 -24 3 -6
21 19 19 28 14 28 -14 l0 -26 36 27 c139 106 339 222 459 266 71 26 85 36 60
45 -16 6 -15 8 6 20 33 18 38 17 32 -6 -6 -23 -8 -23 37 -10 267 79 588 98
852 51z m218 -11 c0 -5 -4 -10 -10 -10 -5 0 -10 5 -10 10 0 6 5 10 10 10 6 0
10 -4 10 -10z m100 -30 c0 -5 -4 -10 -10 -10 -5 0 -10 5 -10 10 0 6 5 10 10
10 6 0 10 -4 10 -10z m-1940 -435 c0 -8 -7 -15 -15 -15 -9 0 -12 6 -9 15 4 8
10 15 15 15 5 0 9 -7 9 -15z m-456 -808 c-3 -9 -10 -17 -15 -17 -11 0 -12 34
-2 44 11 11 24 -9 17 -27z m3556 -25 c0 -13 -12 -22 -22 -16 -10 6 -1 24 13
24 5 0 9 -4 9 -8z m26 -111 c-10 -15 -29 -2 -22 15 3 8 1 14 -4 14 -6 0 -10 6
-10 12 0 7 9 3 21 -9 12 -11 18 -26 15 -32z m4 -46 c0 -8 -4 -15 -10 -15 -5 0
-10 7 -10 15 0 8 5 15 10 15 6 0 10 -7 10 -15z m-3640 -535 c0 -11 -4 -20 -10
-20 -5 0 -10 9 -10 20 0 11 5 20 10 20 6 0 10 -9 10 -20z m200 -601 c0 -5 -10
-9 -21 -9 -18 0 -19 2 -9 15 12 15 30 12 30 -6z m2780 -598 c0 -11 -31 -24
-39 -16 -3 3 1 10 9 15 19 12 30 12 30 1z m-50 -11 c0 -5 -5 -10 -11 -10 -5 0
-7 5 -4 10 3 6 8 10 11 10 2 0 4 -4 4 -10z m-90 -70 c0 -5 -4 -10 -10 -10 -5
0 -10 5 -10 10 0 6 5 10 10 10 6 0 10 -4 10 -10z m-2007 -27 c-7 -2 -19 -2
-25 0 -7 3 -2 5 12 5 14 0 19 -2 13 -5z m1789 -115 c-7 -7 -12 -8 -12 -2 0 14
12 26 19 19 2 -3 -1 -11 -7 -17z m-1467 -48 c3 -5 -1 -10 -9 -10 -9 0 -16 5
-16 10 0 6 4 10 9 10 6 0 13 -4 16 -10z m1303 -13 c2 -10 -3 -17 -12 -17 -10
0 -16 9 -16 21 0 24 23 21 28 -4z m-948 -77 c0 -5 -4 -10 -10 -10 -5 0 -10 5
-10 10 0 6 5 10 10 10 6 0 10 -4 10 -10z"/>
<path d="M1720 3653 c-19 -2 -89 -15 -156 -28 -614 -123 -1114 -557 -1318
-1143 -20 -57 -36 -109 -36 -115 0 -27 20 15 48 98 17 50 46 124 66 165 20 40
36 79 36 87 0 7 5 13 10 13 6 0 10 4 10 10 0 20 144 223 219 307 322 365 806
591 1272 594 55 0 99 5 99 10 0 9 -176 10 -250 2z"/>
<path d="M1985 3649 c4 -5 27 -9 53 -9 62 0 205 -23 316 -49 89 -21 124 -21
70 0 -95 37 -455 85 -439 58z"/>
<path d="M2460 3572 c0 -9 51 -32 71 -32 19 0 7 18 -15 24 -13 3 -31 9 -40 12
-9 3 -16 2 -16 -4z"/>
<path d="M1819 3523 c0 -10 -3 -13 -6 -5 -17 42 -93 -23 -93 -80 0 -53 8 -67
51 -88 29 -15 47 -18 75 -12 52 11 54 28 3 30 -56 3 -89 25 -89 60 0 39 39 75
77 70 22 -2 28 1 28 17 0 27 -45 35 -46 8z m-69 -133 c0 -5 -2 -10 -4 -10 -3
0 -8 5 -11 10 -3 6 -1 10 4 10 6 0 11 -4 11 -10z"/>
<path d="M1900 3521 c0 -17 5 -20 28 -15 27 6 29 4 24 -25 -3 -26 -1 -30 12
-25 15 6 19 14 14 32 -1 4 11 9 28 12 17 3 29 11 29 20 0 12 -16 16 -67 18
-63 3 -68 1 -68 -17z"/>
<path d="M2065 3506 c-9 -60 -9 -71 -2 -83 5 -8 4 -13 -2 -13 -16 0 -13 -32 4
-56 26 -38 103 -38 127 0 4 5 9 33 13 61 3 27 8 62 11 78 5 22 2 27 -15 27
-14 0 -21 -6 -21 -19 0 -11 -3 -27 -7 -37 -5 -13 -3 -16 10 -11 14 5 16 2 11
-21 -9 -35 -14 -40 -15 -16 0 12 -5 5 -13 -16 -10 -25 -10 -37 -2 -43 6 -4 -2
-5 -19 -1 -52 11 -57 22 -47 102 7 64 6 71 -10 75 -13 4 -19 -2 -23 -27z"/>
<path d="M2555 3530 c3 -5 12 -10 18 -10 21 0 210 -96 287 -145 115 -73 186
-130 286 -228 51 -49 94 -85 97 -80 6 10 -115 132 -203 205 -83 69 -222 155
-345 215 -104 50 -154 65 -140 43z"/>
<path d="M2260 3493 c0 -10 -3 -29 -7 -42 -4 -17 -3 -22 5 -17 7 4 12 0 13
-11 1 -19 0 -20 20 35 l9 23 21 -20 c27 -25 19 -47 -23 -64 -31 -13 -34 -12
-42 7 -7 18 -10 14 -22 -29 -18 -65 -18 -65 7 -65 19 0 20 4 15 34 -6 29 -4
34 11 32 13 -2 52 -57 58 -82 0 -1 10 -5 23 -9 l23 -7 -21 39 c-25 48 -25 56
3 68 17 8 22 18 22 44 0 28 -6 38 -30 52 -16 9 -42 19 -57 23 -23 5 -28 3 -28
-11z m100 -83 c0 -5 -4 -10 -10 -10 -5 0 -10 5 -10 10 0 6 5 10 10 10 6 0 10
-4 10 -10z"/>
<path d="M1577 3473 c-3 -15 -3 -40 -1 -55 1 -15 -1 -28 -5 -28 -5 0 -13 -23
-18 -51 -10 -48 -9 -50 11 -47 17 2 21 9 19 37 -1 24 1 30 8 20 6 -9 11 -11
17 -3 10 15 59 10 80 -9 9 -9 23 -13 30 -9 8 6 -4 31 -41 87 -58 88 -90 107
-100 58z m56 -57 c17 -26 13 -36 -15 -36 -13 0 -18 8 -18 30 0 36 12 38 33 6z"/>
<path d="M1440 3460 c-25 -10 -45 -22 -44 -26 2 -31 28 -103 35 -98 5 3 4 15
-2 27 -12 21 -12 21 15 3 31 -20 76 -15 76 9 0 18 -17 28 -25 15 -10 -16 -52
-12 -59 7 -7 18 6 30 42 39 21 6 30 28 15 37 -5 2 -28 -4 -53 -13z"/>
<path d="M2430 3418 c-7 -24 -21 -66 -31 -95 -16 -46 -17 -52 -2 -57 19 -8 16
-11 37 43 9 24 14 52 11 62 -4 10 -3 19 2 19 15 0 31 48 20 59 -18 18 -23 13
-37 -31z m-10 -118 c0 -5 -5 -10 -11 -10 -5 0 -7 5 -4 10 3 6 8 10 11 10 2 0
4 -4 4 -10z"/>
<path d="M1970 3439 c0 -5 -4 -7 -10 -4 -11 7 -11 7 -15 -52 -2 -35 1 -43 16
-43 14 0 18 10 21 55 1 30 0 55 -4 55 -5 0 -8 -5 -8 -11z"/>
<path d="M2511 3398 c-8 -18 -26 -59 -41 -90 -26 -55 -27 -58 -8 -64 23 -7 21
-10 42 45 11 27 13 48 8 53 -6 6 -4 21 5 39 17 34 33 38 33 9 0 -11 5 -20 11
-20 21 0 -9 59 -31 60 -3 0 -11 -15 -19 -32z"/>
<path d="M1315 3411 c-3 -6 1 -16 8 -23 8 -7 12 -19 10 -28 -2 -8 3 -24 12
-35 16 -19 16 -19 11 7 -4 15 -1 28 5 30 7 2 7 12 -2 31 -12 27 -33 35 -44 18z"/>
<path d="M1221 3366 c-9 -11 -6 -26 15 -72 14 -33 33 -67 42 -76 37 -42 122
-3 122 55 -1 18 -8 43 -16 57 l-15 25 5 -27 c4 -15 2 -30 -4 -33 -14 -9 -13
-42 2 -47 9 -3 9 -6 0 -12 -7 -4 -12 -3 -12 2 0 5 -11 7 -24 5 -13 -3 -27 0
-30 6 -4 6 -16 11 -27 11 -21 0 -26 16 -8 22 9 3 8 11 -2 28 -7 14 -14 31 -15
39 -4 24 -20 33 -33 17z"/>
<path d="M2636 3364 c-4 -9 -2 -22 4 -29 7 -8 7 -15 1 -19 -5 -3 -12 0 -14 6
-3 7 -11 -1 -18 -19 -14 -34 -49 -46 -49 -17 0 9 5 12 12 8 8 -5 9 0 5 17 -4
13 -7 31 -7 39 0 12 -2 12 -16 -1 -13 -14 -14 -25 -4 -83 15 -82 40 -105 61
-53 7 17 25 58 40 90 26 54 26 58 9 67 -14 7 -20 6 -24 -6z m-36 -125 c0 -18
-2 -19 -15 -9 -8 7 -15 16 -15 21 0 5 7 9 15 9 9 0 15 -9 15 -21z"/>
<path d="M1141 3326 c-8 -10 -7 -19 7 -37 10 -13 24 -36 31 -51 7 -14 19 -24
26 -22 7 3 16 1 19 -4 8 -13 -33 -9 -61 6 -17 9 -22 9 -27 -3 -7 -18 85 -68
108 -59 22 8 20 19 -12 67 -15 23 -36 59 -47 80 -21 41 -27 44 -44 23z"/>
<path d="M1443 3322 c-13 -8 -5 -61 10 -62 4 0 12 0 18 0 7 0 9 10 4 28 -8 34
-17 43 -32 34z"/>
<path d="M2698 3293 c-55 -35 -65 -108 -19 -154 40 -39 92 -40 127 -2 24 26
24 28 7 40 -9 8 -23 11 -31 8 -7 -2 -10 -1 -7 4 7 12 -12 24 -25 16 -15 -10 8
-36 29 -33 9 2 16 -3 16 -11 0 -8 -14 -15 -34 -17 -70 -8 -97 63 -41 109 34
29 65 26 83 -9 8 -16 16 -21 26 -15 22 14 4 51 -25 51 -14 0 -27 7 -30 15 -8
20 -42 19 -76 -2z"/>
<path d="M1031 3256 c-13 -15 1 -32 18 -22 5 3 11 -1 14 -9 4 -9 1 -12 -9 -8
-10 4 -6 -10 13 -42 16 -26 33 -48 38 -48 6 0 16 -7 23 -14 7 -7 19 -13 25
-12 9 0 8 2 0 6 -7 2 -13 10 -13 17 0 6 -13 26 -30 44 -33 36 -35 42 -19 42 6
0 16 6 24 13 11 11 10 16 -7 26 -11 7 -23 10 -26 6 -4 -3 0 -10 7 -14 9 -6 10
-11 2 -15 -6 -4 -13 4 -17 19 -7 28 -25 33 -43 11z"/>
<path d="M1799 3229 c-7 -41 -7 -49 2 -49 6 0 13 9 16 20 6 22 18 26 28 10 3
-6 -1 -17 -9 -26 -9 -9 -14 -19 -11 -24 3 -4 -2 -13 -11 -20 -20 -18 -33 -3
-36 43 -3 32 -6 37 -28 37 -39 -1 -144 -28 -148 -39 -2 -5 -11 -7 -21 -4 -20
5 -66 -9 -171 -52 -75 -31 -103 -49 -93 -59 4 -4 1 -5 -7 -2 -18 7 -119 -49
-127 -69 -3 -8 -11 -15 -17 -15 -41 0 -238 -197 -320 -320 -104 -154 -163
-292 -196 -456 -6 -32 -17 -81 -23 -109 -6 -27 -10 -115 -10 -195 1 -162 22
-280 74 -435 32 -94 131 -293 137 -275 5 13 32 13 32 1 0 -6 -5 -13 -10 -16
-24 -15 150 -209 285 -316 221 -176 485 -262 805 -261 372 1 693 140 955 413
211 220 331 493 351 799 l6 97 -23 -2 c-18 -1 -23 -7 -21 -23 3 -24 -10 -35
-32 -26 -20 8 -24 43 -9 74 8 15 9 26 3 28 -16 6 -11 39 6 46 9 4 19 5 21 2
10 -10 10 -62 -1 -68 -6 -4 4 -8 23 -8 l34 0 -7 85 c-35 425 -252 785 -614
1018 -113 72 -285 141 -432 173 -66 14 -399 33 -401 23z m226 -48 c6 -1 10 -9
10 -18 0 -13 -9 -18 -32 -20 -23 -1 -33 3 -33 13 0 8 4 14 10 14 5 0 7 7 3 16
-5 13 -3 14 13 6 10 -5 24 -10 29 -11z m-92 -10 c5 -22 -14 -34 -38 -25 -17 7
-17 7 -9 28 9 22 41 20 47 -3z m211 -17 c7 -18 -27 -37 -41 -23 -6 6 -9 19 -6
29 5 20 38 16 47 -6z m-424 -6 c0 -22 -27 -35 -41 -21 -15 15 -1 39 21 39 13
0 20 -7 20 -18z m150 2 c0 -5 -4 -10 -10 -10 -5 0 -10 5 -10 10 0 6 5 10 10
10 6 0 10 -4 10 -10z m375 -8 c3 -8 0 -21 -6 -28 -15 -18 -39 -1 -39 27 0 21
37 22 45 1z m90 8 c23 -37 6 -92 -21 -69 -21 17 -17 39 7 39 19 0 19 1 5 16
-9 8 -16 17 -16 20 0 8 19 4 25 -6z m-726 -51 c-14 -8 -39 6 -39 23 0 5 10 12
23 17 18 7 23 5 25 -12 2 -11 -2 -23 -9 -28z m291 34 c0 -5 -7 -17 -15 -27
-21 -28 -19 -36 10 -36 14 0 25 5 25 11 0 7 11 9 33 5 17 -4 75 -13 127 -21
176 -25 317 -76 468 -168 89 -54 245 -194 307 -276 25 -33 43 -48 54 -44 12 4
13 3 3 -5 -11 -8 -9 -17 11 -48 87 -139 146 -325 167 -525 15 -147 -1 -287
-50 -446 -32 -105 -122 -272 -182 -340 -16 -17 -18 -25 -9 -42 7 -13 17 -18
28 -14 11 4 14 3 9 -6 -5 -7 -1 -18 10 -25 25 -19 11 -50 -19 -42 -32 8 -51
-7 -45 -38 6 -31 -16 -56 -34 -38 -7 7 -13 21 -15 33 -2 16 1 19 17 14 12 -4
20 -2 20 5 0 7 -9 14 -20 17 -11 3 -20 12 -20 19 0 22 -11 17 -51 -22 -23 -23
-35 -43 -32 -53 3 -12 2 -13 -4 -3 -7 9 -21 3 -56 -24 -26 -20 -44 -40 -41
-45 3 -5 10 -6 16 -3 6 4 9 1 6 -7 -6 -18 -38 -25 -47 -10 -4 7 -37 -6 -91
-34 -81 -43 -283 -115 -322 -115 -10 0 -18 -7 -18 -15 0 -8 -4 -15 -10 -15 -5
0 -10 5 -10 11 0 8 -14 9 -42 5 -24 -3 -99 -7 -168 -7 -117 -2 -139 -7 -140
-31 0 -5 7 -8 15 -8 8 0 15 -4 15 -10 0 -5 -9 -10 -19 -10 -12 0 -18 -7 -17
-18 2 -27 -38 -22 -42 6 -2 15 2 22 13 22 12 0 14 4 5 19 -13 26 -13 52 1 28
14 -24 32 -22 19 3 -6 11 -21 20 -34 20 -38 0 -193 48 -271 84 -47 22 -77 31
-86 25 -8 -5 -22 -9 -32 -9 -14 0 -18 6 -15 28 2 21 -1 27 -14 26 -10 -1 -16
2 -13 6 3 5 -29 34 -70 66 -87 64 -177 162 -250 268 -28 40 -56 71 -63 68 -6
-2 -12 1 -12 7 0 6 -7 8 -15 5 -10 -4 -15 0 -15 11 0 12 5 15 20 10 11 -3 20
-4 20 -1 0 2 -15 38 -34 78 -35 75 -79 240 -92 337 -3 32 -14 63 -25 75 -24
25 -24 33 1 46 16 8 20 21 20 59 0 54 31 219 57 296 30 93 101 242 148 308
130 186 328 342 540 425 72 28 208 61 253 62 27 0 32 4 32 25 0 14 5 25 10 25
6 0 10 -7 10 -16 0 -21 19 -7 30 22 9 22 40 35 40 17z m80 -25 c0 -6 -7 -5
-15 2 -8 7 -15 17 -15 22 0 6 7 5 15 -2 8 -7 15 -17 15 -22z m-466 -15 c7 -17
-11 -35 -29 -30 -5 2 -11 13 -13 25 -3 16 2 22 16 22 11 0 23 -8 26 -17z m522
-10 c-10 -10 -19 5 -10 18 6 11 8 11 12 0 2 -7 1 -15 -2 -18z m411 -14 c2 -22
-23 -37 -38 -22 -14 14 0 43 20 43 10 0 17 -9 18 -21z m-257 1 c0 -5 -7 -10
-16 -10 -8 0 -12 5 -9 10 3 6 10 10 16 10 5 0 9 -4 9 -10z m-770 -21 c0 -12
-8 -23 -20 -26 -11 -3 -17 -9 -14 -14 3 -5 1 -9 -5 -9 -8 0 -9 18 -2 63 0 4
10 7 21 7 14 0 20 -7 20 -21z m-140 -19 c0 -5 -4 -10 -10 -10 -5 0 -10 5 -10
10 0 6 5 10 10 10 6 0 10 -4 10 -10z m60 0 c8 -5 11 -12 7 -17 -5 -4 -13 -1
-18 7 -8 11 -9 8 -5 -11 6 -27 -14 -46 -35 -33 -15 9 -10 42 9 53 21 13 24 13
42 1z m1207 4 c13 -4 20 -11 16 -20 -3 -8 0 -14 5 -14 6 0 14 9 17 20 7 22 20
26 30 10 3 -5 1 -10 -4 -10 -6 0 -11 -7 -11 -15 0 -8 6 -15 14 -15 19 0 30
-32 14 -42 -17 -10 -26 -10 -33 2 -4 6 -12 7 -18 3 -7 -4 -6 1 2 10 8 10 11
20 7 24 -3 3 -6 1 -6 -6 0 -8 -7 -7 -23 4 -13 8 -27 12 -30 9 -11 -11 -36 16
-30 32 6 15 16 17 50 8z m-1310 -91 c0 -21 -15 -33 -34 -26 -23 9 -16 43 10
43 16 0 24 -6 24 -17z m1313 7 c0 -5 -4 -10 -10 -10 -5 0 -10 5 -10 10 0 6 5
10 10 10 6 0 10 -4 10 -10z m170 -47 c0 -16 -6 -23 -19 -23 -23 0 -33 13 -26
32 9 24 45 17 45 -9z m-1567 -22 c5 -22 -14 -34 -38 -25 -17 7 -17 7 -9 28 9
22 41 20 47 -3z m70 -27 c-8 -13 -20 -24 -25 -24 -5 0 -3 7 5 15 9 9 13 24 9
37 -5 20 -4 21 11 10 15 -13 15 -16 0 -38z m1511 0 c5 -14 4 -15 -9 -4 -17 14
-19 20 -6 20 5 0 12 -7 15 -16z m69 -13 c5 -22 -14 -34 -38 -25 -17 7 -17 7
-9 28 9 22 41 20 47 -3z m-1742 -17 c23 -25 23 -26 5 -39 -25 -19 -36 -11 -36
26 0 18 -4 28 -10 24 -5 -3 -10 -1 -10 4 0 19 26 12 51 -15z m109 17 c0 -6 -4
-13 -10 -16 -5 -3 -10 1 -10 9 0 9 5 16 10 16 6 0 10 -4 10 -9z m1704 -78 c4
-9 1 -20 -6 -24 -15 -9 -38 8 -38 27 0 20 37 17 44 -3z m-1876 -35 c-3 -24
-17 -32 -36 -20 -18 12 -4 42 20 42 14 0 19 -6 16 -22z m1945 -42 c3 -8 0 -19
-6 -24 -15 -13 -52 12 -42 27 9 16 42 13 48 -3z m-2003 -45 c0 -24 -25 -34
-40 -16 -15 18 -5 35 21 35 12 0 19 -7 19 -19z m36 -8 c-10 -10 -19 5 -10 18
6 11 8 11 12 0 2 -7 1 -15 -2 -18z m1943 -6 c6 -8 8 -17 4 -20 -11 -12 -23 -8
-23 7 0 8 -8 17 -17 19 -14 4 -14 5 3 6 12 0 27 -5 33 -12z m-2048 -18 c15
-15 18 -24 10 -28 -6 -4 -9 -15 -5 -25 5 -12 1 -19 -15 -23 -12 -3 -21 -13
-21 -24 0 -11 -5 -19 -11 -19 -6 0 -8 7 -5 16 4 11 -1 18 -14 21 -23 6 -24 7
-8 36 11 21 11 21 19 2 8 -19 8 -19 15 3 3 12 10 22 15 22 5 0 9 5 9 11 0 6
-7 9 -15 5 -15 -5 -20 5 -8 17 9 10 11 9 34 -14z m2132 -10 c3 -12 0 -22 -8
-25 -19 -8 -35 4 -35 24 0 25 37 25 43 1z m-2039 -15 c8 -21 -12 -17 -24 6 -8
16 -8 18 4 14 8 -3 17 -12 20 -20z m-28 -15 c3 -6 1 -14 -5 -18 -7 -4 -9 -16
-5 -27 6 -17 5 -17 -9 -4 -10 9 -14 24 -11 38 7 24 19 29 30 11z m2115 -49
c25 -14 24 -27 -1 -35 -27 -9 -39 1 -33 25 6 23 8 24 34 10z m-2223 -64 c2
-10 -3 -16 -16 -16 -13 0 -21 8 -24 24 -4 21 -2 23 16 16 12 -4 22 -15 24 -24z
m2272 -50 c0 -21 -21 -31 -31 -15 -5 8 -3 17 4 21 18 12 27 10 27 -6z m-2324
-22 c19 -13 28 -14 37 -5 16 16 37 14 37 -4 0 -9 -6 -12 -15 -8 -20 7 -55 -24
-48 -43 7 -20 -10 -17 -27 4 -14 16 -25 72 -14 72 3 0 16 -7 30 -16z m2280
-91 c-4 -4 -11 -1 -16 7 -16 25 -11 35 7 17 9 -9 13 -20 9 -24z m88 10 c4 -9
3 -20 -2 -25 -14 -14 -42 2 -42 23 0 24 35 26 44 2z m-2344 -12 c0 -6 -4 -13
-10 -16 -5 -3 -10 1 -10 9 0 9 5 16 10 16 6 0 10 -4 10 -9z m-45 -11 c13 -21
-5 -45 -35 -47 -36 -3 -36 -2 -7 31 24 28 33 31 42 16z m2405 -24 c0 -3 -4 -8
-10 -11 -5 -3 -10 -1 -10 4 0 6 5 11 10 11 6 0 10 -2 10 -4z m40 -38 c0 -10
-4 -18 -8 -18 -5 0 -9 14 -9 30 0 20 3 26 9 18 4 -7 8 -21 8 -30z m-31 -41
c-18 -18 -39 -11 -39 13 0 24 21 31 39 15 12 -12 12 -16 0 -28z m-2425 0 c-1
-9 4 -17 12 -17 8 0 14 -7 14 -15 0 -9 -9 -15 -25 -15 -14 0 -25 -4 -25 -10 0
-5 -4 -10 -10 -10 -5 0 -6 8 -3 18 6 15 5 15 -10 3 -15 -11 -17 -11 -17 2 0 8
-6 18 -12 20 -9 4 -8 6 2 6 9 1 22 10 30 21 17 24 46 22 44 -3z m40 7 c23 -9
20 -23 -4 -17 -11 3 -20 9 -20 14 0 11 3 11 24 3z m2406 -109 c-6 -8 -18 -11
-26 -8 -20 7 -18 41 4 45 22 5 37 -19 22 -37z m-2476 -13 c11 -18 -6 -34 -39
-38 -27 -3 -34 10 -10 20 8 3 12 12 9 20 -7 18 28 16 40 -2z m21 -72 c-3 -5
-10 -10 -16 -10 -5 0 -9 5 -9 10 0 6 7 10 16 10 8 0 12 -4 9 -10z m-28 -57
c-16 -16 -47 -7 -47 13 0 7 8 18 18 23 24 14 49 -16 29 -36z m2443 3 c0 -3 -4
-8 -10 -11 -5 -3 -10 -1 -10 4 0 6 5 11 10 11 6 0 10 -2 10 -4z m-2427 -60 c3
-8 1 -17 -6 -20 -7 -2 -1 -5 11 -5 25 -1 26 -26 1 -26 -8 0 -19 -4 -26 -8 -10
-6 -43 16 -43 30 0 8 41 43 50 43 5 0 10 -6 13 -14z m-63 -40 c0 -3 -4 -8 -10
-11 -5 -3 -10 -1 -10 4 0 6 5 11 10 11 6 0 10 -2 10 -4z m2540 -66 c0 -3 -4
-11 -9 -19 -8 -12 -12 -12 -25 -2 -21 18 -20 39 2 43 15 3 32 -8 32 -22z
m-2440 -9 c13 -26 13 -31 -5 -31 -9 0 -12 6 -9 15 4 9 0 15 -9 15 -9 0 -17
-10 -19 -22 -2 -13 -10 -23 -18 -23 -8 0 -16 10 -18 23 -3 17 2 22 17 22 12 0
21 5 21 10 0 18 29 11 40 -9z m10 -56 c10 -12 10 -15 -4 -15 -9 0 -16 7 -16
15 0 8 2 15 4 15 2 0 9 -7 16 -15z m2360 5 c0 -5 -2 -10 -4 -10 -3 0 -8 5 -11
10 -3 6 -1 10 4 10 6 0 11 -4 11 -10z m53 -33 c8 -20 -9 -41 -27 -34 -9 4 -16
14 -16 24 0 15 -2 16 -10 3 -5 -8 -10 -10 -10 -4 0 16 11 24 36 24 12 0 24 -6
27 -13z m-2393 -6 c0 -5 -7 -11 -14 -14 -10 -4 -13 -1 -9 9 6 15 23 19 23 5z
m-46 -27 c9 -22 -1 -34 -29 -34 -19 0 -23 4 -18 18 12 32 37 41 47 16z m2410
-70 c8 -20 -1 -34 -20 -34 -20 0 -30 30 -13 41 20 12 26 11 33 -7z m-2400 -15
c14 12 15 10 12 -18 -4 -38 -8 -43 -30 -35 -10 4 -16 18 -16 38 0 22 3 27 9
17 8 -12 12 -12 25 -2z m-57 -41 c-3 -8 -6 -5 -6 6 -1 11 2 17 5 13 3 -3 4
-12 1 -19z m2427 -44 c8 -21 -1 -34 -25 -34 -14 0 -19 7 -19 25 0 29 34 36 44
9z m-69 -14 c8 -27 -3 -46 -19 -30 -8 9 -8 14 2 17 10 4 10 8 1 19 -7 9 -8 14
-1 14 6 0 13 -9 17 -20z m-2255 -30 c0 -21 -24 -28 -35 -10 -8 14 3 30 21 30
8 0 14 -9 14 -20z m2275 -60 c0 -8 -8 -16 -17 -18 -13 -2 -18 3 -18 18 0 15 5
20 18 18 9 -2 17 -10 17 -18z m-2231 -27 c4 -9 1 -22 -6 -29 -17 -17 -53 8
-45 31 8 20 43 19 51 -2z m2186 -68 c0 -7 -7 -16 -15 -19 -20 -7 -33 23 -14
34 16 10 29 4 29 -15z m-2193 -10 c-2 -5 -10 -10 -17 -10 -7 0 -15 5 -17 10
-2 6 6 11 17 11 11 0 19 -5 17 -11z m67 -11 c9 -23 3 -26 -45 -29 l-41 -2 24
23 c27 27 53 30 62 8z m62 -40 c-10 -7 -13 -15 -8 -18 6 -3 8 -15 5 -26 -3
-11 0 -20 6 -20 6 0 11 -4 11 -9 0 -6 -10 -8 -22 -7 -39 6 -68 18 -68 28 0 6
7 8 15 4 8 -3 15 -1 15 4 0 6 7 10 15 10 9 0 12 6 9 15 -8 19 14 47 29 38 6
-4 4 -11 -7 -19z m2001 -38 c-4 -9 -11 -16 -17 -16 -17 0 -24 31 -9 41 18 11
34 -5 26 -25z m-1947 -36 c0 -5 -4 -10 -10 -10 -5 0 -10 5 -10 10 0 6 5 10 10
10 6 0 10 -4 10 -10z m15 -57 c3 -10 1 -19 -4 -21 -6 -2 -11 -12 -11 -23 0
-10 -4 -19 -10 -19 -5 0 -10 9 -10 20 0 11 -4 20 -10 20 -5 0 -10 9 -10 20 0
26 45 28 55 3z m76 -11 c-6 -2 -9 -8 -5 -13 3 -5 1 -9 -5 -9 -5 0 -13 5 -16
10 -3 6 -1 10 5 10 7 0 9 7 6 16 -6 15 -4 15 10 3 10 -8 12 -15 5 -17z m-27
-31 c3 -5 15 -7 26 -4 21 6 28 -11 10 -22 -6 -4 -8 -15 -5 -26 5 -15 3 -17
-11 -12 -11 4 -15 3 -10 -5 4 -7 -1 -10 -13 -9 -11 1 -18 3 -16 5 2 2 -1 17
-6 34 -9 31 -5 48 11 48 5 0 11 -4 14 -9z m1784 -33 c-2 -6 -12 -12 -22 -14
-14 -2 -15 0 -5 12 14 17 32 19 27 2z m-181 -40 c-3 -8 -6 -5 -6 6 -1 11 2 17
5 13 3 -3 4 -12 1 -19z m73 -8 c0 -21 -1 -22 -41 -24 -23 -2 -24 0 -15 21 14
30 56 32 56 3z m-1575 -18 c3 -8 0 -21 -6 -28 -6 -7 -8 -18 -5 -23 4 -5 2 -12
-4 -16 -5 -3 -10 3 -10 15 0 11 -6 23 -14 26 -20 8 -8 43 15 41 10 -1 21 -8
24 -15z m55 -42 c11 0 40 -29 40 -40 0 -14 -32 -21 -46 -9 -7 6 -10 17 -7 25
3 8 0 20 -6 28 -6 7 -7 16 -3 20 4 4 8 1 10 -8 2 -9 7 -16 12 -16z m1430 1 c0
-11 -5 -23 -10 -26 -8 -5 -8 -11 -1 -19 11 -13 5 -26 -12 -26 -5 0 -7 7 -3 15
3 8 -1 21 -9 29 -19 18 -9 46 16 46 12 0 19 -7 19 -19z m80 -2 c0 -5 -7 -9
-15 -9 -15 0 -20 12 -9 23 8 8 24 -1 24 -14z m-160 -4 c-7 -9 -15 -13 -17 -11
-7 7 7 26 19 26 6 0 6 -6 -2 -15z m-1219 -59 c-7 -8 -10 -19 -7 -25 7 -11 -29
-25 -44 -16 -17 10 -12 65 6 65 8 0 12 -4 9 -10 -3 -5 -1 -10 5 -10 6 0 13 7
17 16 4 10 9 12 16 5 7 -7 6 -15 -2 -25z m1212 5 c2 -11 0 -24 -5 -29 -16 -16
-46 7 -40 30 6 24 38 23 45 -1z m-1103 -22 c0 -13 -18 -20 -25 -9 -4 6 -15 8
-26 5 -10 -4 -19 -2 -19 4 0 5 8 11 18 13 22 5 52 -2 52 -13z m30 -8 c0 -12
-20 -25 -27 -18 -7 7 6 27 18 27 5 0 9 -4 9 -9z m35 -11 c3 -5 2 -10 -4 -10
-5 0 -13 5 -16 10 -3 6 -2 10 4 10 5 0 13 -4 16 -10z m815 0 c0 -5 -5 -10 -11
-10 -5 0 -7 5 -4 10 3 6 8 10 11 10 2 0 4 -4 4 -10z m128 -11 c4 -19 -19 -31
-38 -19 -18 11 -4 42 17 38 10 -2 19 -10 21 -19z m-1028 -13 c0 -24 -26 -38
-40 -22 -6 9 -9 20 -5 26 9 15 45 12 45 -4z m1060 -1 c0 -8 -4 -15 -10 -15 -5
0 -10 7 -10 15 0 8 5 15 10 15 6 0 10 -7 10 -15z m-886 -20 c11 -8 15 -15 10
-15 -6 0 -19 7 -30 15 -10 8 -14 14 -9 14 6 0 19 -6 29 -14z m759 -4 c5 -22
-14 -34 -38 -25 -17 7 -17 7 -9 28 9 22 41 20 47 -3z m-833 -11 c0 -23 -26
-38 -41 -23 -14 14 0 43 22 43 12 0 19 -7 19 -20z m90 -15 c5 3 10 -2 10 -14
0 -25 -14 -34 -41 -26 -14 5 -18 10 -11 17 6 6 8 18 4 27 -5 14 -3 14 11 3 9
-8 21 -11 27 -7z m290 6 c0 -6 -4 -13 -10 -16 -5 -3 -10 1 -10 9 0 9 5 16 10
16 6 0 10 -4 10 -9z m347 -7 c3 -8 1 -20 -4 -25 -15 -15 -42 0 -40 22 2 23 35
26 44 3z m-237 -14 c0 -5 6 -10 14 -10 18 0 26 -33 11 -46 -8 -8 -15 -8 -26 0
-16 12 -22 66 -8 66 5 0 9 -4 9 -10z m-160 -21 c0 -6 -4 -7 -10 -4 -5 3 -10
11 -10 16 0 6 5 7 10 4 6 -3 10 -11 10 -16z m294 4 c4 -9 3 -20 -2 -25 -14
-14 -42 2 -42 23 0 24 35 26 44 2z m-316 -16 c3 -17 -13 -30 -40 -32 -21 -2
-21 -3 -7 28 12 27 42 30 47 4z m108 2 c3 -6 0 -18 -9 -26 -13 -14 -18 -13
-41 3 -14 11 -26 22 -26 25 0 11 69 9 76 -2z m-356 -19 c0 -5 -5 -10 -11 -10
-5 0 -7 5 -4 10 3 6 8 10 11 10 2 0 4 -4 4 -10z m220 -40 c0 -5 -4 -10 -10
-10 -5 0 -10 5 -10 10 0 6 5 10 10 10 6 0 10 -4 10 -10z m150 0 c0 -5 -4 -10
-9 -10 -6 0 -13 5 -16 10 -3 6 1 10 9 10 9 0 16 -4 16 -10z"/>
<path d="M1855 3040 c-3 -5 -23 -8 -43 -5 -50 7 -144 -13 -161 -33 -9 -12 -15
-13 -18 -5 -3 9 -14 9 -46 -1 -77 -24 -127 -48 -121 -58 4 -6 -1 -8 -12 -4
-12 3 -39 -6 -69 -24 -27 -16 -44 -30 -37 -30 6 0 12 -5 12 -11 0 -7 -9 -9
-22 -5 -23 5 -98 -37 -98 -55 0 -5 -6 -9 -13 -9 -17 0 -79 -64 -71 -73 4 -4 0
-7 -8 -7 -33 0 -214 -236 -233 -303 -4 -12 -19 -56 -35 -97 -37 -98 -57 -180
-66 -260 -3 -36 -8 -68 -10 -72 -2 -3 2 -9 8 -11 10 -4 10 -8 -1 -15 -11 -8
-12 -25 -7 -78 4 -38 7 -79 7 -91 -1 -12 4 -25 9 -28 6 -3 10 -11 10 -16 0 -6
-4 -8 -9 -5 -12 8 22 -145 46 -209 11 -27 25 -49 31 -47 15 3 16 -15 1 -20
-15 -5 47 -119 118 -220 88 -123 244 -264 280 -252 12 4 14 3 5 -3 -9 -7 -5
-14 16 -30 46 -34 151 -82 157 -72 4 5 11 6 17 3 7 -4 6 -9 -1 -13 -14 -9 119
-56 219 -77 161 -35 315 -30 513 15 108 25 357 145 357 171 0 6 6 10 14 10 8
0 17 11 20 25 4 14 11 25 17 25 8 0 7 -5 -1 -15 -20 -25 5 -17 29 9 17 18 19
25 9 30 -7 3 -4 4 8 1 16 -4 32 6 63 40 23 25 41 51 38 58 -4 14 14 35 28 32
5 -1 7 0 3 2 -13 8 -9 25 5 20 18 -7 38 10 74 63 91 134 155 321 179 523 9 79
-4 249 -19 244 -16 -5 -22 -137 -7 -137 7 0 8 -6 2 -17 -5 -10 -12 -54 -15
-98 -9 -125 -60 -302 -111 -385 -67 -108 -139 -209 -170 -239 -21 -20 -32 -39
-29 -49 4 -10 1 -13 -8 -10 -18 6 -115 -80 -111 -100 3 -10 -2 -13 -14 -8 -11
4 -38 -7 -78 -33 -163 -104 -320 -151 -532 -158 -249 -9 -456 48 -652 181 -30
20 -58 34 -62 31 -13 -8 -41 6 -37 19 2 6 -28 45 -67 86 -215 226 -316 470
-316 765 0 77 -4 125 -10 125 -15 0 -12 26 4 39 8 7 22 45 31 85 19 86 61 200
100 271 56 100 93 162 111 184 11 12 20 26 20 31 1 6 2 14 3 18 0 5 13 14 27
21 37 16 144 113 144 129 0 8 6 12 13 9 6 -2 36 11 65 30 29 18 55 33 59 33 3
0 14 6 22 13 9 8 51 27 93 43 43 16 78 35 78 41 0 8 10 11 28 7 16 -3 46 -1
68 5 22 6 82 15 133 20 51 6 100 16 108 23 13 10 17 10 20 1 5 -15 33 -17 33
-3 0 6 5 10 11 10 6 0 9 -7 5 -15 -4 -11 1 -15 19 -15 13 0 27 5 30 11 5 7 11
5 18 -4 7 -8 32 -18 57 -21 25 -4 76 -16 113 -27 38 -11 75 -18 83 -15 8 3 13
2 10 -3 -7 -11 22 -23 35 -15 5 3 9 1 9 -5 0 -15 110 -70 127 -64 10 4 14 2
10 -4 -4 -7 20 -30 55 -56 92 -66 199 -178 269 -281 35 -52 68 -90 75 -88 17
4 18 -15 2 -21 -10 -4 -10 -6 0 -6 6 -1 12 -9 12 -18 0 -13 3 -14 11 -6 18 18
4 53 -59 149 -110 167 -252 295 -427 384 -131 67 -285 118 -326 107 -10 -3
-20 0 -21 5 -5 14 -245 21 -253 8z m786 -257 c13 -16 12 -17 -3 -4 -10 7 -18
15 -18 17 0 8 8 3 21 -13z m-1576 -173 c-3 -5 -11 -10 -16 -10 -6 0 -7 5 -4
10 3 6 11 10 16 10 6 0 7 -4 4 -10z"/>
<path d="M1840 2905 c0 -18 19 -40 26 -32 4 4 0 15 -9 24 -9 10 -17 13 -17 8z"/>
<path d="M1887 2875 c-9 -20 -17 -46 -16 -58 l0 -22 11 23 c7 14 20 22 37 22
24 1 25 1 6 12 -11 6 -21 12 -23 14 -2 1 1 12 8 23 6 12 7 21 2 21 -4 0 -16
-16 -25 -35z"/>
<path d="M1828 2843 c7 -3 16 -2 19 1 4 3 -2 6 -13 5 -11 0 -14 -3 -6 -6z"/>
<path d="M1234 2642 c5 -16 2 -29 -9 -42 -16 -18 -16 -18 4 -13 15 4 23 -1 30
-18 8 -22 10 -22 16 -6 4 10 3 23 -4 30 -6 6 -11 19 -11 28 0 9 -7 23 -16 30
-15 12 -16 11 -10 -9z"/>
<path d="M2541 2644 c11 -14 9 -19 -11 -35 -14 -10 -20 -19 -13 -19 6 0 15 5
18 10 4 6 12 7 18 3 16 -10 77 -11 71 -1 -3 4 -16 8 -30 8 -17 0 -27 8 -34 25
-5 14 -15 25 -21 25 -8 0 -7 -5 2 -16z"/>
<path d="M2590 2640 c0 -11 2 -20 4 -20 2 0 6 9 9 20 3 11 1 20 -4 20 -5 0 -9
-9 -9 -20z"/>
<path d="M1287 2643 c-4 -3 -7 -13 -7 -22 1 -13 3 -13 11 2 11 19 8 33 -4 20z"/>
<path d="M1300 2590 c20 -13 33 -13 25 0 -3 6 -14 10 -23 10 -15 0 -15 -2 -2
-10z"/>
<path d="M1215 2401 c-90 -25 -149 -83 -162 -160 -4 -25 -8 -168 -8 -316 l1
-271 27 -54 c55 -112 185 -152 267 -84 16 14 28 30 25 34 -3 5 -1 12 5 15 6 4
17 -10 25 -29 15 -36 16 -36 78 -36 l62 0 -2 238 -1 237 -87 2 -87 2 -12 -31
-13 -30 -22 27 -21 28 0 -61 c0 -55 2 -61 22 -64 22 -3 22 -7 21 -90 -1 -58 2
-88 9 -88 6 0 -1 -9 -15 -20 -32 -25 -53 -25 -67 -1 -6 12 -10 127 -10 305 0
245 2 287 16 300 18 18 23 19 44 6 11 -7 16 -33 18 -100 l4 -90 102 0 101 0
-6 101 c-6 90 -11 107 -36 142 -15 23 -48 51 -73 64 -50 26 -155 38 -205 24z
m85 -31 c-20 -13 -33 -13 -25 0 3 6 14 10 23 10 15 0 15 -2 2 -10z m-165 -30
c-3 -5 -11 -10 -16 -10 -6 0 -7 5 -4 10 3 6 11 10 16 10 6 0 7 -4 4 -10z m125
0 c0 -5 -5 -10 -11 -10 -5 0 -7 5 -4 10 3 6 8 10 11 10 2 0 4 -4 4 -10z m-40
-9 c0 -5 -7 -11 -14 -14 -10 -4 -13 -1 -9 9 6 15 23 19 23 5z m-89 -34 c-13
-13 -26 -3 -16 12 3 6 11 8 17 5 6 -4 6 -10 -1 -17z m-33 -22 c1 -21 -3 -33
-8 -30 -16 10 -11 65 5 65 1 0 2 -16 3 -35z m362 12 c0 -7 -7 -23 -16 -36 -13
-18 -14 -25 -4 -31 9 -6 8 -14 -5 -34 -21 -31 -29 -34 -20 -6 4 11 2 20 -4 20
-6 0 -11 7 -11 15 0 8 4 15 9 15 5 0 7 14 4 32 -4 28 -3 30 11 19 14 -11 16
-11 16 3 0 9 5 16 10 16 6 0 10 -6 10 -13z m-240 -7 c22 -14 5 -23 -19 -10
-12 6 -26 8 -31 5 -6 -3 -10 -1 -10 4 0 13 40 14 60 1z m10 -120 c0 -5 -2 -10
-4 -10 -3 0 -8 5 -11 10 -3 6 -1 10 4 10 6 0 11 -4 11 -10z m250 -22 c0 -5 -4
-8 -10 -8 -5 0 -10 10 -10 23 0 18 2 19 10 7 5 -8 10 -18 10 -22z m-330 -26
c0 -13 -12 -22 -22 -16 -10 6 -1 24 13 24 5 0 9 -4 9 -8z m280 -25 c0 -4 -6
-2 -14 5 -8 7 -12 17 -9 22 5 8 23 -12 23 -27z m70 13 c0 -5 -4 -10 -10 -10
-5 0 -10 5 -10 10 0 6 5 10 10 10 6 0 10 -4 10 -10z m-120 -10 c0 -5 -4 -10
-10 -10 -5 0 -10 5 -10 10 0 6 5 10 10 10 6 0 10 -4 10 -10z m-230 -35 c0 -8
-3 -15 -6 -15 -3 0 -12 7 -20 15 -14 13 -13 15 5 15 12 0 21 -6 21 -15z m25
-191 c-12 -12 -13 -19 -5 -24 9 -6 9 -13 -1 -29 -17 -26 -24 -27 -25 -3 -1 9
-5 26 -9 36 -6 14 -5 17 4 11 10 -6 12 0 6 24 -6 30 8 45 18 19 3 -9 8 -6 13
7 9 19 9 19 12 -3 2 -12 -4 -29 -13 -38z m195 -34 c0 -5 -2 -10 -4 -10 -3 0
-8 5 -11 10 -3 6 -1 10 4 10 6 0 11 -4 11 -10z m-150 -70 c0 -5 -4 -10 -10
-10 -5 0 -10 5 -10 10 0 6 5 10 10 10 6 0 10 -4 10 -10z m-56 -36 c8 -21 8
-24 -3 -24 -5 0 -11 9 -14 20 -6 24 8 27 17 4z m62 -11 c-10 -10 -19 5 -10 18
6 11 8 11 12 0 2 -7 1 -15 -2 -18z m-116 -3 c0 -5 -4 -10 -10 -10 -5 0 -10 5
-10 10 0 6 5 10 10 10 6 0 10 -4 10 -10z m360 -99 c0 -5 -7 -11 -15 -15 -15
-5 -20 5 -8 17 9 10 23 9 23 -2z m-190 -21 c0 -5 -4 -10 -9 -10 -6 0 -13 5
-16 10 -3 6 1 10 9 10 9 0 16 -4 16 -10z m20 -20 c0 -5 -10 -10 -22 -10 -19 0
-20 2 -8 10 19 13 30 13 30 0z m0 -35 c0 -8 -4 -15 -10 -15 -5 0 -10 7 -10 15
0 8 5 15 10 15 6 0 10 -7 10 -15z m-38 -21 c-3 -19 -7 -22 -13 -12 -13 20 -11
38 5 38 9 0 12 -8 8 -26z"/>
<path d="M1629 2376 c8 -10 9 -16 1 -21 -6 -3 -8 -10 -5 -15 5 -8 8 -797 3
-822 -2 -10 20 -14 90 -16 l92 -3 0 52 c0 43 -2 50 -14 40 -8 -7 -17 -23 -20
-38 -7 -24 -8 -25 -26 -8 -21 19 -27 45 -10 45 6 0 10 -4 10 -10 0 -5 4 -10 9
-10 14 0 20 38 7 44 -6 3 2 3 17 -1 l29 -6 -5 232 c-2 127 -1 231 3 231 9 0
20 -36 20 -67 0 -12 6 -24 13 -27 9 -5 9 -7 0 -12 -7 -3 -11 -15 -9 -27 3 -12
8 -43 11 -70 3 -26 10 -45 14 -43 4 3 5 -9 3 -25 -2 -17 4 -91 14 -165 l18
-134 61 0 62 0 22 168 c11 92 26 206 32 254 7 48 9 103 6 123 -4 26 -2 35 9
35 12 0 14 -32 14 -190 0 -160 2 -192 15 -196 8 -4 15 -10 15 -15 0 -4 -7 -6
-15 -3 -13 5 -15 -8 -15 -85 l0 -91 90 0 90 0 0 445 0 445 -135 0 c-101 0
-135 -3 -136 -12 0 -7 -2 -22 -4 -33 -2 -11 -11 -87 -20 -170 -18 -171 -23
-200 -32 -191 -8 8 -10 21 -17 96 -3 30 -12 107 -21 170 -8 63 -15 121 -15
128 0 6 -4 12 -10 12 -5 0 -10 -7 -10 -15 0 -8 -4 -15 -10 -15 -5 0 -10 7 -10
15 0 13 -20 15 -121 15 -103 0 -120 -2 -110 -14z m219 -33 c3 -42 -12 -36 -23
10 -5 19 -3 27 6 27 9 0 15 -14 17 -37z m-153 17 c3 -5 1 -10 -4 -10 -6 0 -11
5 -11 10 0 6 2 10 4 10 3 0 8 -4 11 -10z m507 -15 c-2 -14 -8 -25 -13 -25 -5
0 -9 -7 -9 -15 0 -8 5 -15 10 -15 11 0 -20 -49 -32 -50 -3 0 -4 8 -1 19 3 10
0 22 -7 26 -8 5 -8 10 1 21 6 8 9 23 6 34 -6 22 8 28 16 8 3 -9 7 -7 12 5 11
26 23 21 17 -8z m-129 -54 c3 -14 1 -18 -9 -14 -15 6 -18 16 -7 26 9 10 10 9
16 -12z m-363 -35 c0 -3 -4 -8 -10 -11 -5 -3 -10 -1 -10 4 0 6 5 11 10 11 6 0
10 -2 10 -4z m513 -28 c6 -21 2 -36 -7 -27 -10 11 -16 49 -8 49 5 0 12 -10 15
-22z m-158 2 c3 -5 1 -10 -4 -10 -6 0 -11 5 -11 10 0 6 2 10 4 10 3 0 8 -4 11
-10z m110 -51 c11 -17 -1 -21 -15 -4 -8 9 -8 15 -2 15 6 0 14 -5 17 -11z m75
-10 c0 -5 -4 -9 -10 -9 -5 0 -10 7 -10 16 0 8 5 12 10 9 6 -3 10 -10 10 -16z
m-120 -3 c0 -3 -4 -8 -10 -11 -5 -3 -10 -1 -10 4 0 6 5 11 10 11 6 0 10 -2 10
-4z m-410 -136 c0 -13 -12 -19 -26 -13 -21 8 -17 22 6 20 11 -1 20 -4 20 -7z
m420 -9 c0 -6 -4 -13 -10 -16 -5 -3 -10 1 -10 9 0 9 5 16 10 16 6 0 10 -4 10
-9z m15 -41 c3 -5 1 -10 -4 -10 -6 0 -11 5 -11 10 0 6 2 10 4 10 3 0 8 -4 11
-10z m25 -15 c0 -3 -10 -19 -22 -35 -16 -23 -25 -27 -35 -19 -15 13 -18 39 -4
39 5 0 12 -6 14 -12 4 -8 6 -7 6 4 1 9 7 19 14 21 17 7 27 8 27 2z m55 -5 c3
-5 1 -10 -4 -10 -6 0 -11 5 -11 10 0 6 2 10 4 10 3 0 8 -4 11 -10z m-520 -20
c3 -5 1 -10 -4 -10 -6 0 -11 5 -11 10 0 6 2 10 4 10 3 0 8 -4 11 -10z m-50
-10 c-3 -5 -11 -10 -16 -10 -6 0 -7 5 -4 10 3 6 11 10 16 10 6 0 7 -4 4 -10z
m85 -15 c-7 -9 -15 -13 -18 -10 -3 2 1 11 8 20 7 9 15 13 18 10 3 -2 -1 -11
-8 -20z m-72 -17 c-6 -18 -28 -21 -28 -4 0 9 7 16 16 16 9 0 14 -5 12 -12z
m42 -18 c0 -5 -5 -10 -11 -10 -5 0 -7 5 -4 10 3 6 8 10 11 10 2 0 4 -4 4 -10z
m260 -1 c0 6 5 11 11 11 11 0 3 -38 -12 -54 -11 -13 -16 -7 -25 29 -7 27 -6
29 9 16 11 -9 17 -10 17 -2z m-210 -11 c0 -11 -12 -10 -30 2 -12 7 -10 9 8 7
12 0 22 -5 22 -9z m475 -18 c3 -5 1 -10 -4 -10 -6 0 -11 5 -11 10 0 6 2 10 4
10 3 0 8 -4 11 -10z m-271 -35 c18 -14 18 -15 2 -21 -11 -4 -22 -1 -27 7 -19
31 -6 38 25 14z m206 -5 c0 -5 -5 -10 -11 -10 -5 0 -7 5 -4 10 3 6 8 10 11 10
2 0 4 -4 4 -10z m25 -30 c3 -5 1 -10 -4 -10 -6 0 -11 5 -11 10 0 6 2 10 4 10
3 0 8 -4 11 -10z m-235 -4 c0 -3 -4 -8 -10 -11 -5 -3 -10 -1 -10 4 0 6 5 11
10 11 6 0 10 -2 10 -4z m-195 -16 c3 -5 -1 -10 -9 -10 -9 0 -16 5 -16 10 0 6
4 10 9 10 6 0 13 -4 16 -10z m250 -30 c-3 -5 -10 -10 -16 -10 -5 0 -9 5 -9 10
0 6 7 10 16 10 8 0 12 -4 9 -10z m-315 -26 c0 -8 -4 -12 -10 -9 -5 3 -10 10
-10 16 0 5 5 9 10 9 6 0 10 -7 10 -16z m260 -4 c0 -5 -2 -10 -4 -10 -3 0 -8 5
-11 10 -3 6 -1 10 4 10 6 0 11 -4 11 -10z m-50 -20 c0 -5 -4 -10 -10 -10 -5 0
-10 5 -10 10 0 6 5 10 10 10 6 0 10 -4 10 -10z m-250 -4 c0 -3 -4 -8 -10 -11
-5 -3 -10 -1 -10 4 0 6 5 11 10 11 6 0 10 -2 10 -4z m90 -20 c0 -8 -6 -16 -14
-19 -10 -4 -12 0 -9 14 6 22 23 26 23 5z m-40 -6 c0 -5 -4 -10 -10 -10 -5 0
-10 5 -10 10 0 6 5 10 10 10 6 0 10 -4 10 -10z m540 -19 c0 -5 -7 -11 -15 -15
-15 -5 -20 5 -8 17 9 10 23 9 23 -2z m-92 -53 c-2 -6 -10 -14 -16 -16 -7 -2
-10 2 -6 12 7 18 28 22 22 4z m12 -54 c0 -2 -13 -3 -30 -2 -16 1 -30 8 -30 15
0 9 7 9 30 2 17 -6 30 -13 30 -15z"/>
<path d="M2381 1941 c0 -398 2 -443 15 -416 l14 30 -5 -27 -5 -28 89 0 89 0 4
50 c3 53 -7 67 -18 24 l-7 -26 -20 21 c-17 16 -19 23 -9 33 9 9 12 9 12 -3 0
-9 8 -5 20 11 17 21 20 41 20 137 l0 111 58 5 c82 6 132 22 160 50 20 21 25
37 29 96 2 45 0 71 -7 71 -5 0 -10 5 -10 11 0 5 5 7 10 4 13 -8 13 138 0 186
-11 40 -43 73 -80 84 -23 7 -24 6 -6 -7 18 -15 18 -15 0 -22 -19 -7 -19 -8 0
-21 17 -13 17 -15 3 -21 -10 -3 -17 -14 -18 -23 -1 -9 -4 -5 -9 9 -4 14 -5 41
-3 61 5 33 3 37 -22 43 -15 4 -89 6 -166 5 l-139 -2 1 -446z m139 427 c0 -11
-12 -10 -30 2 -12 7 -10 9 8 7 12 0 22 -5 22 -9z m-70 -38 c0 -5 -5 -10 -11
-10 -5 0 -7 5 -4 10 3 6 8 10 11 10 2 0 4 -4 4 -10z m173 -19 c3 -14 1 -18 -9
-14 -15 6 -18 16 -7 26 9 10 10 9 16 -12z m-133 -41 c0 -5 -4 -10 -10 -10 -5
0 -10 5 -10 10 0 6 5 10 10 10 6 0 10 -4 10 -10z m-80 -10 c0 -5 -2 -10 -4
-10 -3 0 -8 5 -11 10 -3 6 -1 10 4 10 6 0 11 -4 11 -10z m120 0 c0 -5 -4 -10
-10 -10 -5 0 -10 5 -10 10 0 6 5 10 10 10 6 0 10 -4 10 -10z m250 -32 c0 -4
-4 -8 -10 -8 -5 0 -10 4 -10 9 0 5 -3 18 -6 28 -5 16 -4 16 10 -1 9 -11 16
-23 16 -28z m-131 -4 c11 -10 14 -35 12 -95 -3 -99 -11 -119 -51 -119 l-30 0
0 113 c0 63 3 117 7 120 9 9 44 -2 62 -19z m79 -50 c-4 -3 -12 5 -18 18 -12
22 -12 22 6 6 10 -10 15 -20 12 -24z m62 20 c0 -8 -5 -12 -10 -9 -6 4 -8 11
-5 16 9 14 15 11 15 -7z m-95 -104 c-3 -5 -10 -10 -16 -10 -5 0 -9 5 -9 10 0
6 7 10 16 10 8 0 12 -4 9 -10z m3 -48 c6 -18 -15 -14 -22 4 -4 10 -1 14 6 12
6 -2 14 -10 16 -16z m-238 -2 c0 -5 -9 -10 -20 -10 -11 0 -20 5 -20 10 0 6 9
10 20 10 11 0 20 -4 20 -10z m125 -60 c-3 -5 -11 -10 -16 -10 -6 0 -7 5 -4 10
3 6 11 10 16 10 6 0 7 -4 4 -10z m-170 -30 c3 -5 -1 -10 -10 -10 -9 0 -13 5
-10 10 3 6 8 10 10 10 2 0 7 -4 10 -10z m45 6 c0 -3 -4 -8 -10 -11 -5 -3 -10
-1 -10 4 0 6 5 11 10 11 6 0 10 -2 10 -4z m80 -6 c0 -5 -5 -10 -11 -10 -5 0
-7 5 -4 10 3 6 8 10 11 10 2 0 4 -4 4 -10z m-42 -12 c-2 -6 -10 -14 -16 -16
-7 -2 -10 2 -6 12 7 18 28 22 22 4z m-78 -28 c0 -5 -7 -10 -15 -10 -8 0 -15 5
-15 10 0 6 7 10 15 10 8 0 15 -4 15 -10z m320 -10 c0 -5 -5 -10 -11 -10 -5 0
-7 5 -4 10 3 6 8 10 11 10 2 0 4 -4 4 -10z m-246 -6 c9 -3 16 -11 16 -16 0 -6
-8 -7 -17 -3 -10 4 -26 7 -35 7 -10 0 -18 3 -18 9 0 10 30 12 54 3z m211 -4
c3 -5 1 -10 -4 -10 -6 0 -11 5 -11 10 0 6 2 10 4 10 3 0 8 -4 11 -10z m-185
-120 c0 -5 -4 -10 -9 -10 -6 0 -13 5 -16 10 -3 6 1 10 9 10 9 0 16 -4 16 -10z
m-20 -40 c0 -5 -4 -10 -10 -10 -5 0 -10 5 -10 10 0 6 5 10 10 10 6 0 10 -4 10
-10z m10 -61 c0 -18 -18 -9 -23 12 -4 16 -3 18 9 8 8 -6 14 -15 14 -20z m40 7
c0 -8 -6 -16 -14 -19 -10 -4 -12 0 -9 14 6 22 23 26 23 5z m15 -36 c3 -5 1
-10 -4 -10 -6 0 -11 5 -11 10 0 6 2 10 4 10 3 0 8 -4 11 -10z"/>
<path d="M2950 2370 c-16 -10 -8 -23 15 -26 8 -1 15 4 15 11 0 19 -13 25 -30
15z"/>
<path d="M2976 2260 c13 -38 29 -96 36 -129 9 -48 16 -61 30 -61 20 0 20 -3
-8 115 -23 96 -43 141 -63 142 -17 1 -17 -3 5 -67z"/>
<path d="M1315 1970 c-3 -5 1 -10 9 -10 9 0 16 5 16 10 0 6 -4 10 -9 10 -6 0
-13 -4 -16 -10z"/>
<path d="M760 1891 c0 -5 5 -13 10 -16 6 -3 10 -2 10 4 0 5 -4 13 -10 16 -5 3
-10 2 -10 -4z"/>
<path d="M1276 1368 c-13 -14 -15 -23 -8 -26 7 -2 12 -12 12 -23 0 -10 5 -19
10 -19 6 0 10 8 10 19 0 24 25 45 45 37 8 -3 15 -14 15 -25 0 -10 9 -21 20
-24 16 -4 20 0 20 22 0 16 -8 35 -18 44 -27 25 -83 22 -106 -5z m104 -8 c0 -5
-4 -10 -10 -10 -5 0 -10 5 -10 10 0 6 5 10 10 10 6 0 10 -4 10 -10z"/>
<path d="M1460 1379 c0 -5 5 -7 10 -4 6 3 10 8 10 11 0 2 -4 4 -10 4 -5 0 -10
-5 -10 -11z"/>
<path d="M1490 1375 c-11 -13 -6 -15 33 -15 37 0 45 3 41 15 -4 8 -18 15 -34
15 -15 0 -33 -7 -40 -15z"/>
<path d="M1600 1373 c0 -41 13 -92 22 -87 5 3 6 -5 2 -20 -5 -22 -2 -26 23
-31 52 -12 53 -13 53 -65 0 -44 3 -50 20 -50 19 0 21 6 19 53 -1 28 -7 58 -12
65 -7 9 -6 17 1 24 7 7 12 33 12 60 0 57 -15 68 -89 68 -42 0 -51 -3 -51 -17z
m98 -51 c4 -38 -12 -62 -39 -62 -16 0 -19 8 -19 43 0 50 6 59 35 55 15 -2 21
-12 23 -36z"/>
<path d="M1771 1373 c0 -13 2 -14 6 -4 4 10 7 11 13 1 4 -7 13 -9 19 -6 19 12
12 26 -14 26 -17 0 -25 -5 -24 -17z"/>
<path d="M1832 1365 c-7 -15 -12 -74 -12 -135 0 -103 1 -110 20 -110 19 0 20
7 20 120 l0 120 30 0 c22 0 28 4 24 15 -4 9 -19 15 -38 15 -25 0 -35 -6 -44
-25z"/>
<path d="M1942 1255 c-1 -133 -1 -135 21 -135 22 0 22 2 21 132 -2 124 -3 133
-21 136 -19 3 -20 -4 -21 -133z m28 45 c0 -5 -5 -10 -11 -10 -5 0 -7 5 -4 10
3 6 8 10 11 10 2 0 4 -4 4 -10z m0 -45 c0 -8 -4 -15 -10 -15 -5 0 -10 7 -10
15 0 8 5 15 10 15 6 0 10 -7 10 -15z"/>
<path d="M2030 1316 c0 -50 4 -76 13 -79 10 -4 10 -6 0 -6 -9 -1 -13 -19 -13
-56 0 -49 2 -55 21 -55 20 0 21 4 17 54 l-5 55 36 3 c24 2 36 8 36 18 0 10 -8
14 -27 12 -14 -2 -29 2 -33 8 -5 8 -11 8 -21 -1 -19 -16 -18 0 2 22 14 16 14
21 1 48 -10 21 -12 32 -4 40 8 8 6 11 -6 11 -14 0 -17 -11 -17 -74z"/>
<path d="M2067 1369 c-4 -15 -2 -19 10 -15 8 3 28 6 44 6 19 0 29 5 29 15 0
18 -36 20 -44 3 -5 -10 -7 -10 -12 0 -9 18 -21 15 -27 -9z"/>
<path d="M2182 1255 c1 -130 2 -135 22 -135 19 0 21 5 18 55 -2 30 -8 53 -13
49 -5 -3 -9 0 -9 5 0 6 5 11 10 11 6 0 10 32 10 75 0 67 -2 75 -19 75 -18 0
-19 -8 -19 -135z"/>
<path d="M2270 1253 l0 -134 62 3 c38 2 63 8 66 15 3 10 -12 12 -57 8 -56 -4
-61 -2 -61 16 0 13 4 18 12 13 8 -5 9 -2 4 12 -15 36 -19 55 -10 53 5 -1 28
-1 52 0 30 1 42 5 42 16 0 10 -10 15 -33 15 -19 0 -36 2 -38 4 -3 3 -3 23 -1
45 l4 41 44 0 c33 0 44 4 44 16 0 12 -12 15 -65 13 l-65 -2 0 -134z"/>
<path d="M2440 1360 c0 -16 2 -30 4 -30 2 0 9 14 15 30 8 24 7 30 -5 30 -9 0
-14 -10 -14 -30z"/>
<path d="M2486 1375 c-3 -10 1 -15 13 -15 34 0 42 -24 40 -122 l-1 -94 -34 4
-34 4 0 59 c0 44 -4 59 -14 59 -14 0 -28 -66 -17 -85 3 -5 4 -22 2 -37 -2 -27
-1 -28 44 -28 66 0 83 12 91 66 5 38 4 48 -10 56 -20 11 -22 30 -2 22 22 -8
12 97 -11 114 -23 17 -60 15 -67 -3z"/>
<path d="M1440 1245 l0 -125 65 0 c53 0 63 3 59 15 -4 10 -20 15 -44 15 -36 0
-38 2 -42 36 -4 37 23 86 37 64 10 -16 35 -12 35 6 0 13 -8 15 -35 12 -35 -4
-35 -4 -35 37 0 29 -5 44 -20 53 -20 12 -20 10 -20 -113z m30 -80 c0 -8 -2
-15 -4 -15 -2 0 -6 7 -10 15 -3 8 -1 15 4 15 6 0 10 -7 10 -15z"/>
<path d="M2452 1319 c-7 -11 -11 -24 -8 -27 10 -9 28 15 24 32 -2 14 -5 13
-16 -5z"/>
<path d="M1260 1292 c0 -11 5 -24 10 -27 6 -4 9 2 7 14 -4 29 -17 39 -17 13z"/>
<path d="M1292 1270 c0 -14 2 -19 5 -12 2 6 2 18 0 25 -3 6 -5 1 -5 -13z"/>
<path d="M1260 1203 c0 -59 22 -83 75 -83 35 0 47 4 56 22 9 16 9 23 0 26 -6
2 -11 8 -11 13 0 6 5 7 10 4 6 -3 10 1 10 9 0 9 -4 16 -10 16 -5 0 -13 1 -17
2 -5 1 -10 -11 -13 -27 -3 -19 -12 -31 -24 -33 -24 -5 -35 14 -36 58 -1 31 -2
32 -10 13 -5 -13 -12 -23 -16 -23 -3 0 -4 7 -1 15 4 8 2 17 -3 20 -6 4 -10
-10 -10 -32z"/>
<path d="M1602 1168 c-2 -44 -1 -48 20 -48 21 0 23 4 20 48 -3 37 -8 48 -20
48 -13 0 -18 -11 -20 -48z"/>
<path d="M2805 1150 c-22 -23 -25 -30 -12 -30 9 0 17 -4 17 -10 0 -5 7 -7 16
-3 8 3 13 11 10 19 -3 7 0 15 7 18 9 5 9 7 -1 12 -6 3 -10 10 -6 15 10 18 -3
9 -31 -21z"/>
<path d="M1335 910 c-3 -5 1 -10 9 -10 9 0 16 5 16 10 0 6 -4 10 -9 10 -6 0
-13 -4 -16 -10z"/>
<path d="M913 3169 c-13 -13 31 -157 54 -174 11 -9 13 -14 5 -19 -7 -4 -16 -4
-22 -1 -5 3 -10 1 -10 -5 0 -7 -6 -10 -12 -7 -7 2 -13 11 -13 20 0 20 -42 60
-54 53 -5 -3 -11 3 -14 14 -7 26 -33 36 -50 18 -12 -12 -11 -21 7 -60 12 -25
30 -56 40 -67 11 -12 14 -21 8 -21 -7 0 -12 5 -12 10 0 6 -6 10 -14 10 -7 0
-35 9 -61 21 -43 19 -49 20 -63 5 -15 -14 -13 -18 13 -46 24 -25 30 -28 38
-15 11 21 25 19 83 -9 27 -13 52 -21 57 -17 7 7 -28 91 -43 101 -4 3 -7 13 -7
22 0 12 12 7 45 -23 25 -21 48 -39 51 -39 3 0 17 9 30 19 19 15 23 24 17 47
-5 20 -10 24 -16 15 -6 -10 -10 -8 -15 8 -4 13 -4 25 -1 28 3 4 6 1 6 -6 0 -7
5 -9 11 -5 6 3 14 2 18 -4 4 -8 16 -3 33 13 23 21 28 22 46 10 17 -13 22 -12
37 5 12 13 14 20 6 20 -7 0 -43 17 -79 39 -80 46 -104 55 -119 40z m77 -59
c20 -16 22 -22 11 -29 -7 -5 -11 -14 -7 -20 4 -7 1 -9 -8 -5 -11 4 -36 52 -36
70 0 9 17 2 40 -16z m-220 -170 c0 -5 -4 -10 -10 -10 -5 0 -10 5 -10 10 0 6 5
10 10 10 6 0 10 -4 10 -10z"/>
<path d="M2951 3166 c-9 -11 -8 -17 4 -30 9 -9 20 -16 25 -16 5 0 12 -9 15
-21 4 -11 9 -18 12 -15 4 3 12 1 20 -5 10 -9 13 -8 13 0 0 23 -21 52 -32 45
-6 -4 -8 -3 -5 3 4 6 -4 20 -17 32 -20 18 -25 20 -35 7z"/>
<path d="M2878 3082 c-39 -47 -45 -59 -34 -70 11 -11 18 -8 44 17 21 21 29 37
25 51 -4 14 -1 19 8 15 8 -3 20 -1 28 4 12 8 12 12 2 25 -8 9 -16 16 -20 15
-3 0 -27 -26 -53 -57z"/>
<path d="M2933 3065 c4 -33 17 -45 46 -45 34 0 71 34 47 43 -9 4 -18 2 -21 -4
-4 -5 -10 -7 -15 -4 -5 3 -12 1 -15 -5 -4 -6 -14 -1 -26 12 -18 22 -19 22 -16
3z"/>
<path d="M3015 2986 c-62 -56 -68 -65 -56 -80 13 -15 16 -15 38 5 12 13 23 29
23 38 0 9 3 12 10 5 5 -5 6 -30 2 -59 -7 -43 -5 -54 15 -81 17 -22 29 -30 46
-27 30 5 76 -59 57 -82 -14 -17 -7 -45 11 -45 7 0 10 3 7 6 -3 3 4 16 16 28
11 13 31 42 44 65 23 40 23 41 3 41 -11 0 -27 -10 -35 -22 -16 -22 -16 -22
-30 -3 -20 27 -6 39 48 41 56 2 71 11 55 30 -14 17 -55 18 -66 2 -4 -7 -24
-13 -43 -13 -19 0 -50 -3 -67 -7 l-33 -7 0 50 c0 47 1 49 21 39 19 -11 34 -7
34 8 1 4 6 17 13 30 14 25 1 30 -18 7 -13 -15 -60 -21 -60 -7 0 18 33 53 48
51 40 -4 43 0 25 26 -10 13 -23 25 -29 25 -5 0 -41 -29 -79 -64z m125 -182 c0
-8 -4 -12 -10 -9 -5 3 -10 10 -10 16 0 5 5 9 10 9 6 0 10 -7 10 -16z m60 -68
c0 -11 -19 -15 -25 -6 -3 5 1 10 9 10 9 0 16 -2 16 -4z"/>
<path d="M3323 2953 c40 -54 83 -115 96 -135 20 -34 41 -50 41 -32 0 10 -118
183 -154 226 -17 21 -37 38 -44 38 -6 0 21 -44 61 -97z"/>
<path d="M760 2883 c0 -10 14 -33 31 -52 25 -26 33 -31 40 -20 13 20 12 22
-22 57 -35 36 -49 40 -49 15z"/>
<path d="M592 2797 c-13 -6 -32 -26 -44 -44 l-20 -32 77 -51 c43 -27 81 -50
85 -50 16 0 50 68 50 99 0 69 -84 113 -148 78z m41 -7 c7 -6 24 -19 40 -31 28
-21 38 -71 17 -84 -8 -5 -78 35 -110 62 -3 3 4 12 16 22 11 9 19 22 16 29 -5
15 5 16 21 2z"/>
<path d="M3460 2755 c0 -11 73 -150 82 -156 5 -3 8 -10 6 -15 -1 -5 10 -41 25
-79 35 -92 60 -184 87 -323 20 -103 22 -135 17 -320 -6 -214 -21 -319 -66
-462 -25 -78 -26 -92 -5 -62 20 29 61 193 79 317 21 147 19 375 -5 515 -24
140 -60 278 -93 351 -13 30 -30 70 -37 89 -21 56 -72 150 -81 150 -5 0 -9 -2
-9 -5z"/>
<path d="M3241 2707 c-13 -6 -23 -16 -21 -21 1 -5 -5 -13 -14 -18 -31 -18 -16
-106 23 -135 27 -20 36 3 16 40 -22 42 -14 83 20 99 34 15 74 -4 88 -42 11
-28 31 -39 40 -22 2 4 0 22 -5 40 -15 57 -91 88 -147 59z m59 -1 c0 -3 -4 -8
-10 -11 -5 -3 -10 -1 -10 4 0 6 5 11 10 11 6 0 10 -2 10 -4z"/>
<path d="M519 2646 c-44 -15 -73 -64 -65 -111 14 -74 124 -108 172 -52 28 32
30 52 9 73 -8 9 -15 20 -15 26 0 6 6 6 15 -2 24 -20 18 5 -10 38 -29 35 -60
43 -106 28z m79 -59 c28 -26 28 -47 1 -76 -16 -17 -28 -21 -48 -16 -68 17 -83
81 -27 112 23 13 43 7 74 -20z"/>
<path d="M3395 2550 c6 -27 4 -32 -24 -41 -17 -6 -31 -17 -31 -25 0 -8 -5 -14
-11 -14 -5 0 -7 5 -4 10 8 13 5 12 -34 -1 -20 -7 -31 -18 -31 -30 0 -18 20
-26 33 -13 6 6 117 54 125 54 1 0 7 -12 12 -26 8 -21 13 -24 25 -14 12 10 12
17 -3 48 -9 20 -21 40 -25 43 -5 3 -8 9 -8 13 3 20 -1 26 -15 26 -12 0 -14 -7
-9 -30z"/>
<path d="M432 2443 c-27 -5 -62 -57 -62 -93 0 -33 24 -66 60 -85 40 -21 73
-19 104 6 23 18 24 22 11 35 -13 14 -17 14 -32 -1 -11 -12 -24 -15 -42 -10
-14 4 -36 7 -48 7 -13 0 -23 4 -23 9 0 5 4 9 9 9 4 0 6 11 3 25 -6 31 22 65
53 65 28 0 75 -36 75 -58 0 -13 3 -12 15 6 12 16 13 26 5 42 -11 20 -25 26
-33 13 -2 -5 -2 -2 -1 4 6 25 -37 37 -94 26z"/>
<path d="M3393 2398 c-35 -11 -60 -24 -58 -29 3 -4 1 -10 -5 -14 -5 -3 -10 -1
-10 4 0 6 -7 11 -15 11 -17 0 -19 -9 -6 -28 6 -10 14 -10 32 -3 13 5 49 17 79
26 30 9 61 18 67 20 15 5 6 35 -11 34 -6 0 -39 -10 -73 -21z"/>
<path d="M203 2328 c-2 -16 1 -18 10 -9 7 7 8 14 1 21 -6 6 -10 2 -11 -12z"/>
<path d="M557 2330 c-3 -11 -2 -20 3 -20 12 0 21 28 11 35 -5 2 -11 -4 -14
-15z"/>
<path d="M3388 2332 c-50 -21 -76 -114 -44 -158 23 -30 39 -6 24 34 -11 28
-10 35 8 59 12 16 32 29 45 31 39 5 78 -40 70 -82 -3 -12 21 -26 31 -20 4 3 8
21 8 41 0 27 -8 43 -35 70 -35 35 -36 35 -57 17 -19 -17 -21 -17 -15 -1 7 18
-5 21 -35 9z"/>
<path d="M187 2273 c-11 -10 -8 -43 3 -43 6 0 10 11 10 25 0 26 -2 29 -13 18z"/>
<path d="M426 2216 c-10 -38 -7 -66 9 -66 8 0 15 9 15 20 0 45 34 13 43 -40 3
-19 3 -29 0 -22 -4 10 -9 9 -24 -4 -10 -9 -16 -21 -13 -25 3 -5 -3 -9 -12 -9
-13 0 -15 -3 -7 -11 12 -12 50 4 70 30 21 28 16 95 -9 118 -35 31 -65 35 -72
9z m69 -26 c3 -5 1 -10 -4 -10 -6 0 -11 5 -11 10 0 6 2 10 4 10 3 0 8 -4 11
-10z"/>
<path d="M328 2179 c-10 -37 -10 -46 8 -77 28 -53 93 -67 94 -21 0 13 -45 18
-53 6 -6 -8 -7 -6 -3 5 3 10 0 20 -5 24 -6 3 -10 23 -8 43 3 49 1 61 -11 61
-5 0 -15 -19 -22 -41z"/>
<path d="M161 2128 c-15 -115 -20 -267 -10 -274 5 -3 9 31 9 76 0 70 8 147 25
253 2 15 1 27 -4 27 -5 0 -14 -37 -20 -82z"/>
<path d="M3485 2148 c-27 -5 -63 -10 -78 -10 -20 -1 -26 -5 -22 -15 3 -8 5
-17 5 -19 0 -2 11 -4 25 -4 21 0 25 -5 25 -30 0 -20 5 -30 15 -30 11 0 14 10
13 39 -1 31 -4 38 -17 34 -12 -5 -13 -3 -4 7 7 8 22 10 42 5 28 -6 31 -10 31
-46 0 -21 2 -39 4 -39 14 0 35 13 31 20 -2 4 -7 27 -10 50 -3 24 -6 44 -8 45
-1 1 -24 -3 -52 -7z"/>
<path d="M3354 2093 c3 -21 6 -46 6 -55 0 -22 19 -23 27 -2 7 19 -16 94 -30
94 -6 0 -7 -16 -3 -37z"/>
<path d="M360 1951 c0 -9 30 -24 36 -18 2 1 -6 8 -16 15 -11 7 -20 8 -20 3z"/>
<path d="M410 1925 c-10 -30 -13 -33 -30 -22 -15 9 -22 9 -32 -1 -9 -9 -8 -12
9 -12 14 0 24 -8 29 -22 l7 -23 8 23 c5 14 17 22 31 22 22 1 22 1 5 15 -13 9
-17 20 -12 34 3 12 4 21 1 21 -2 0 -10 -16 -16 -35z"/>
<path d="M3435 1929 c5 -14 1 -25 -12 -34 -17 -14 -17 -14 5 -15 16 0 26 -7
30 -22 l5 -22 8 22 c5 14 17 22 31 22 17 0 19 3 10 12 -8 8 -15 8 -27 -2 -13
-11 -17 -7 -30 24 -16 38 -31 50 -20 15z"/>
<path d="M3483 1933 c-3 -10 -8 -22 -10 -28 -3 -5 3 -1 11 9 16 20 21 36 11
36 -3 0 -8 -8 -12 -17z"/>
<path d="M150 1778 c0 -65 33 -265 54 -329 8 -24 22 -71 31 -104 18 -65 64
-169 121 -280 42 -79 53 -95 65 -95 5 0 -5 24 -22 53 -121 205 -203 456 -229
701 -12 114 -20 135 -20 54z"/>
<path d="M3356 1752 c-2 -4 -6 -29 -7 -57 l-4 -50 94 -12 c52 -7 95 -12 96
-10 1 1 5 26 8 55 5 47 4 53 -11 50 -10 -2 -19 -16 -22 -33 -4 -22 -11 -31
-29 -33 -23 -4 -24 -2 -18 38 4 35 3 41 -11 38 -10 -2 -19 -16 -22 -33 -3 -17
-9 -29 -13 -27 -4 1 -14 2 -23 2 -13 0 -15 7 -11 34 4 24 1 36 -8 40 -8 3 -16
2 -19 -2z"/>
<path d="M375 1728 c-28 -16 -36 -31 -22 -40 19 -12 27 -9 21 7 -4 8 -1 15 5
15 6 0 11 -4 11 -8 0 -5 13 -7 29 -4 47 7 96 -61 61 -83 -8 -5 -7 -11 1 -21
17 -21 32 -17 26 6 -3 11 -1 18 4 14 5 -3 9 11 9 31 0 71 -83 118 -145 83z"/>
<path d="M320 1637 c0 -39 26 -72 60 -80 21 -5 26 -3 26 13 0 11 -6 20 -13 20
-17 0 -45 44 -38 61 4 10 -2 15 -15 16 -16 1 -20 -4 -20 -30z"/>
<path d="M400 1631 c0 -17 31 -83 37 -78 11 11 -9 87 -23 87 -8 0 -14 -4 -14
-9z"/>
<path d="M3336 1604 c-3 -9 -4 -20 0 -25 3 -5 0 -9 -5 -9 -6 0 -11 -16 -11
-36 0 -52 44 -94 100 -94 27 0 43 5 46 15 4 8 12 15 18 15 17 0 36 44 36 80 0
23 -5 30 -20 30 -22 0 -26 -10 -10 -26 17 -17 -37 -74 -70 -74 -16 0 -32 5
-35 11 -4 6 -13 8 -20 5 -11 -4 -13 5 -9 37 3 23 10 47 16 54 5 7 7 17 3 23
-9 15 -32 12 -39 -6z m54 -134 c0 -5 -4 -10 -10 -10 -5 0 -10 5 -10 10 0 6 5
10 10 10 6 0 10 -4 10 -10z"/>
<path d="M431 1529 c-44 -18 -53 -30 -34 -44 17 -13 48 -4 64 19 4 4 18 0 32
-9 48 -31 47 -84 -2 -106 -17 -8 -27 -18 -24 -26 3 -7 -11 1 -31 19 -20 17
-36 40 -36 51 0 10 -6 25 -14 32 -23 23 -30 -28 -10 -68 22 -42 42 -56 81 -57
47 0 80 18 97 55 39 82 -41 169 -123 134z"/>
<path d="M3287 1443 c-14 -14 -6 -33 13 -33 12 0 39 -9 60 -20 22 -11 40 -16
40 -10 0 5 5 10 10 10 6 0 10 -6 10 -14 0 -22 39 -27 50 -6 8 15 0 21 -67 43
-42 15 -80 24 -86 20 -5 -3 -12 0 -16 6 -4 6 -10 8 -14 4z"/>
<path d="M3251 1342 c-12 -31 -20 -60 -19 -63 2 -3 -9 -20 -24 -38 -61 -72
-24 -182 60 -181 15 0 15 2 2 10 -19 13 -4 13 19 0 25 -13 91 47 91 84 0 37
-28 33 -43 -6 -6 -18 -11 -35 -10 -38 3 -10 -76 -10 -82 0 -10 17 -28 11 -21
-6 5 -14 4 -15 -9 -4 -17 14 -21 35 -5 25 6 -3 10 1 10 9 0 9 -7 16 -15 16
-19 0 -19 6 3 29 35 40 43 51 38 60 -3 4 0 20 7 35 9 20 17 25 34 21 28 -7 41
14 18 31 -12 9 -16 20 -11 37 4 17 1 27 -8 30 -10 4 -21 -12 -35 -51z m16 -24
c-3 -8 -6 -5 -6 6 -1 11 2 17 5 13 3 -3 4 -12 1 -19z"/>
<path d="M491 1316 c-103 -57 -35 -211 78 -177 47 14 71 47 71 100 0 71 -82
114 -149 77z m9 -26 c0 -5 -4 -10 -10 -10 -5 0 -10 5 -10 10 0 6 5 10 10 10 6
0 10 -4 10 -10z m99 -30 c10 -16 21 -27 24 -23 4 3 7 2 7 -3 0 -13 -49 -49
-78 -58 -58 -19 -99 64 -50 98 37 26 76 20 97 -14z m21 -70 c0 -5 -4 -10 -10
-10 -5 0 -10 5 -10 10 0 6 5 10 10 10 6 0 10 -4 10 -10z"/>
<path d="M3326 1304 c-8 -20 -10 -18 39 -40 22 -10 44 -20 49 -22 5 -3 6 2 3
11 -4 11 -2 14 9 10 7 -3 14 -1 14 3 0 5 -21 18 -47 29 -26 11 -50 21 -54 23
-4 2 -9 -5 -13 -14z"/>
<path d="M3583 1298 c-6 -7 -29 -57 -53 -110 -80 -185 -200 -357 -360 -518
-265 -266 -580 -429 -955 -496 -125 -22 -394 -27 -521 -9 -122 16 -271 53
-384 94 -95 35 -90 34 -90 22 0 -13 232 -87 347 -111 275 -55 576 -44 853 33
94 26 251 88 318 124 23 13 63 35 90 49 137 76 316 223 432 356 129 148 282
391 272 431 -1 4 2 7 7 7 5 0 21 30 35 66 26 65 29 88 9 62z"/>
<path d="M650 1150 c-14 -11 -38 -27 -55 -35 -16 -9 -41 -24 -54 -34 l-25 -19
27 -41 c33 -49 77 -59 103 -23 7 10 16 13 20 9 5 -4 2 -12 -6 -17 -13 -8 -13
-10 1 -10 21 0 56 39 64 72 5 19 0 41 -16 72 -12 26 -25 46 -28 46 -3 0 -17
-9 -31 -20z m36 -56 c7 -28 -8 -64 -35 -81 -21 -13 -81 9 -80 29 0 12 83 74
101 77 4 1 11 -11 14 -25z"/>
<path d="M3084 1045 c-6 -15 34 -95 48 -95 5 0 4 9 -2 19 -13 25 -13 34 0 26
6 -3 7 1 4 9 -7 19 -4 19 30 6 19 -7 26 -6 26 3 0 6 5 4 11 -6 9 -14 7 -22 -8
-32 -10 -8 -24 -12 -31 -10 -9 3 -11 -5 -8 -30 5 -41 14 -57 27 -50 5 3 6 -1
3 -9 -3 -9 -1 -16 5 -16 18 0 25 29 11 45 -10 12 -10 18 0 30 7 8 10 15 6 15
-3 0 2 8 13 19 12 12 28 17 43 14 17 -3 27 0 31 11 5 12 -6 19 -51 32 -31 8
-62 17 -68 19 -6 2 -17 -2 -24 -8 -9 -9 -11 -9 -7 -1 4 7 0 15 -9 18 -26 10
-44 7 -50 -9z"/>
<path d="M780 943 c-19 -15 -54 -44 -77 -64 -35 -33 -39 -40 -26 -50 9 -8 17
-9 21 -3 9 12 79 64 87 64 4 0 -8 -25 -25 -56 -42 -72 -31 -85 40 -49 28 14
54 24 57 21 3 -2 -13 -24 -36 -47 -37 -39 -40 -45 -26 -58 13 -14 19 -11 48
24 17 22 47 55 64 74 30 32 31 36 17 52 -14 16 -18 16 -55 0 -21 -9 -39 -21
-39 -27 0 -9 -21 -11 -49 -5 -2 1 3 9 11 19 8 9 23 36 33 60 16 37 17 45 4 57
-12 12 -19 11 -49 -12z m0 -32 c0 -5 -7 -11 -15 -15 -15 -5 -20 5 -8 17 9 10
23 9 23 -2z m120 -102 c0 -5 -4 -9 -10 -9 -5 0 -10 7 -10 16 0 8 5 12 10 9 6
-3 10 -10 10 -16z"/>
<path d="M430 951 c0 -17 101 -159 139 -195 44 -42 39 -20 -9 37 -21 27 -56
71 -76 100 -49 69 -54 74 -54 58z"/>
<path d="M2978 913 c-44 -50 -42 -57 30 -127 58 -56 69 -63 81 -51 13 12 12
17 -5 36 -10 12 -28 25 -39 30 -15 6 -10 8 23 8 23 1 42 5 42 11 0 5 7 7 15 4
8 -4 15 -1 15 5 0 6 -13 11 -30 11 -27 0 -30 3 -30 29 0 34 -28 70 -40 51 -5
-9 -9 -9 -14 -1 -10 16 -31 13 -48 -6z m82 -66 c0 -6 -3 -7 -7 -4 -3 4 -12 2
-20 -5 -11 -9 -19 -7 -36 10 -21 21 -21 22 -2 36 18 13 22 12 43 -6 12 -12 22
-26 22 -31z"/>
<path d="M3155 829 c-11 -17 1 -21 15 -4 8 9 8 15 2 15 -6 0 -14 -5 -17 -11z"/>
<path d="M2853 791 c-18 -15 -33 -31 -33 -35 0 -8 109 -140 119 -143 3 -2 13
2 21 7 12 8 10 14 -14 39 l-29 31 23 20 c22 19 23 22 7 37 -16 16 -17 16 -17
0 0 -25 -26 -32 -46 -13 -20 20 -11 46 15 46 11 0 22 6 24 13 4 9 8 8 16 -3 5
-8 13 -11 17 -7 12 12 -18 37 -45 37 -14 -1 -41 -13 -58 -29z"/>
<path d="M975 757 c-11 -8 -47 -29 -80 -46 -33 -18 -62 -35 -64 -37 -8 -7 22
-34 31 -28 6 4 5 10 -3 15 -9 5 -4 7 14 5 15 -1 37 -12 50 -23 12 -11 29 -24
37 -28 13 -8 13 -7 1 8 -8 10 -9 17 -3 17 22 0 23 -22 3 -42 -17 -16 -20 -23
-10 -34 6 -8 16 -14 22 -14 6 0 7 3 4 7 -4 3 -3 11 2 17 4 6 16 38 27 70 13
44 15 61 6 64 -7 2 -12 8 -12 14 0 6 6 8 14 5 18 -7 28 17 13 32 -15 15 -28
14 -52 -2z m9 -64 c-10 -41 -13 -44 -35 -33 -25 14 -24 33 4 46 34 18 38 16
31 -13z"/>
<path d="M620 707 c0 -21 156 -164 266 -243 97 -69 298 -178 317 -171 7 2 -22
21 -63 42 -174 87 -304 178 -432 303 -52 51 -88 79 -88 69z"/>
<path d="M1103 686 c4 -9 2 -15 -5 -13 -6 1 -13 -4 -16 -12 -3 -8 0 -11 7 -7
6 4 11 2 11 -4 0 -6 -9 -14 -20 -18 -11 -4 -33 -29 -50 -56 -25 -38 -29 -51
-18 -57 20 -13 23 -12 47 31 12 22 17 40 12 40 -6 0 -11 7 -11 15 0 8 5 15 10
15 6 0 10 -4 10 -10 0 -5 7 -7 15 -4 13 5 15 -6 15 -69 0 -55 4 -78 15 -87 9
-7 17 -11 18 -9 2 2 26 41 55 86 48 78 50 83 32 93 -15 8 -21 6 -30 -9 -5 -11
-7 -28 -4 -38 5 -14 4 -15 -4 -4 -9 12 -13 10 -23 -12 -20 -45 -29 -31 -29 46
0 63 -3 74 -21 86 -19 11 -21 11 -16 -3z m24 -158 c-3 -7 -5 -2 -5 12 0 14 2
19 5 13 2 -7 2 -19 0 -25z m19 -44 c-3 -9 -6 -18 -6 -20 0 -3 -4 -3 -10 1 -11
7 -2 35 12 35 6 0 7 -7 4 -16z"/>
<path d="M2687 669 c-9 -6 -15 -14 -12 -20 3 -5 -1 -6 -9 -3 -22 8 -39 -33
-33 -79 8 -56 45 -92 96 -92 72 0 115 72 81 135 -10 19 -11 19 -45 -1 -19 -12
-35 -27 -35 -35 0 -18 5 -18 35 2 24 16 25 16 25 -8 0 -33 -33 -62 -62 -55
-12 4 -28 1 -35 -5 -17 -14 -31 -2 -16 13 17 17 -5 63 -24 48 -9 -8 -13 -8
-13 0 0 17 61 71 80 71 15 0 30 18 30 36 0 8 -45 3 -63 -7z"/>
<path d="M1260 590 c0 -5 -11 -34 -25 -64 -32 -69 -32 -110 -3 -130 25 -18 42
-21 33 -6 -8 13 1 13 24 -2 10 -6 26 -8 34 -5 20 7 80 136 73 154 -9 23 -26
14 -43 -23 -15 -31 -15 -36 -3 -44 13 -9 7 -14 -12 -11 -4 0 -12 -8 -18 -19
-8 -14 -8 -20 0 -20 6 0 8 -4 5 -10 -10 -16 -28 -12 -57 13 l-27 22 30 69 c23
54 27 71 17 78 -17 11 -28 10 -28 -2z"/>
<path d="M2561 591 c-12 -8 -11 -17 7 -62 12 -29 20 -54 18 -56 -3 -3 -31 14
-63 37 -39 27 -65 39 -76 34 -22 -8 -21 -11 5 -70 12 -27 23 -43 26 -36 3 10
9 7 19 -8 8 -12 12 -24 8 -28 -3 -3 -10 0 -15 8 -6 8 -10 11 -10 5 0 -22 36
-64 48 -56 9 6 6 21 -13 64 -13 31 -20 57 -14 57 5 0 34 -18 64 -40 46 -34 58
-39 75 -30 14 8 17 15 11 28 -4 9 -23 50 -42 89 -26 56 -37 70 -48 64z"/>
<path d="M1425 516 c-2 -6 -13 -40 -25 -75 -17 -47 -19 -65 -10 -71 8 -5 6 -9
-7 -14 -17 -7 -17 -8 0 -18 21 -11 22 -11 31 20 5 13 3 22 -3 22 -6 0 -11 4
-11 8 0 5 6 9 13 9 7 0 25 3 41 7 18 4 25 3 21 -4 -3 -5 1 -10 9 -10 28 0 17
28 -14 39 -32 11 -35 17 -20 41 7 12 15 13 40 3 26 -10 32 -9 37 3 7 18 8 18
-50 36 -35 11 -49 13 -52 4z"/>
<path d="M2368 515 c-3 -3 9 -46 25 -95 24 -69 35 -90 49 -90 10 0 18 2 18 3
0 6 -40 131 -52 160 -10 25 -27 35 -40 22z"/>
<path d="M2247 477 c-43 -8 -48 -12 -43 -31 3 -11 13 -54 23 -93 13 -58 20
-73 35 -73 16 0 17 6 12 42 l-7 42 31 -23 c17 -12 34 -26 37 -31 4 -6 11 -10
16 -10 6 0 8 4 5 9 -3 4 7 6 22 3 27 -4 27 -4 -7 22 -19 14 -39 27 -45 29 -8
3 -7 11 2 29 33 61 -4 101 -81 85z m41 -29 c18 -18 14 -46 -8 -53 -11 -3 -20
-13 -20 -22 0 -13 -3 -13 -15 -3 -8 7 -15 22 -14 34 0 20 1 21 9 1 8 -19 9
-19 9 3 1 14 -5 22 -16 22 -14 1 -12 4 7 15 31 18 33 18 48 3z"/>
<path d="M1591 466 c-6 -7 -8 -21 -5 -30 4 -11 2 -16 -6 -14 -7 2 -32 -25 -55
-59 -40 -57 -42 -62 -22 -67 12 -3 25 1 32 11 7 10 28 16 53 17 40 1 42 -1 42
-27 0 -26 23 -47 37 -34 9 10 -28 201 -41 209 -16 11 -22 10 -35 -6z m29 -86
c0 -25 -4 -30 -25 -30 -29 0 -31 7 -9 38 21 30 34 28 34 -8z"/>
<path d="M2147 386 c4 -60 2 -80 -8 -87 -39 -25 -69 6 -69 71 0 59 -7 80 -27
80 -13 0 -15 -11 -9 -72 8 -84 14 -108 26 -108 5 0 7 7 3 16 -5 14 -3 14 16 3
12 -8 19 -20 16 -26 -2 -8 4 -13 15 -13 30 0 69 21 76 42 8 28 -7 168 -18 168
-6 0 -7 -15 -3 -37 8 -45 -4 -38 -16 9 -5 21 -6 5 -2 -46z"/>
<path d="M1760 439 c-38 -15 -60 -49 -60 -95 0 -58 42 -97 104 -98 25 0 48 3
52 7 13 13 -16 34 -40 30 -13 -3 -35 2 -49 11 -34 23 -39 60 -14 92 18 23 26
26 63 21 24 -2 44 -1 46 4 2 5 17 5 33 1 30 -8 30 -9 33 -91 2 -70 5 -82 19
-79 13 2 17 17 17 83 1 75 2 80 24 83 12 2 22 10 22 18 0 18 -51 19 -69 2 -11
-11 -12 -10 -7 0 6 10 -3 13 -36 11 -23 -1 -59 1 -78 5 -19 3 -46 1 -60 -5z
m15 -19 c-3 -5 -10 -10 -16 -10 -5 0 -9 5 -9 10 0 6 7 10 16 10 8 0 12 -4 9
-10z"/>
</g>
</svg>
