<?xml version="1.0" standalone="no"?>
<!DOCTYPE svg PUBLIC "-//W3C//DTD SVG 20010904//EN"
 "http://www.w3.org/TR/2001/REC-SVG-20010904/DTD/svg10.dtd">
<svg version="1.0" xmlns="http://www.w3.org/2000/svg"
 width="187.000000pt" height="187.000000pt" viewBox="0 0 187.000000 187.000000"
 preserveAspectRatio="xMidYMid meet">

<g transform="translate(0.000000,187.000000) scale(0.100000,-0.100000)"
fill="#000000" stroke="none">
<path d="M715 1825 c-93 -17 -154 -39 -249 -88 -91 -47 -223 -166 -292 -263
-127 -178 -195 -435 -165 -624 62 -388 345 -679 720 -741 62 -10 72 -15 77
-35 l6 -23 32 23 c25 19 48 25 116 29 353 25 669 296 759 649 35 135 37 297 5
423 -5 18 3 29 40 55 40 29 44 35 34 54 -6 12 -12 22 -13 24 -2 2 -21 -8 -44
-22 l-41 -26 -28 63 c-167 368 -562 576 -957 502z m301 -16 c179 -31 336 -112
463 -239 70 -71 149 -186 182 -267 l22 -56 -26 -19 c-27 -20 -34 -51 -17 -78
8 -12 11 -12 28 3 10 9 23 17 29 17 18 0 36 -165 29 -262 -16 -216 -123 -435
-278 -573 -126 -110 -319 -199 -466 -212 l-67 -6 19 22 c11 12 32 53 46 91 15
37 55 117 88 177 52 92 70 114 119 150 32 24 75 64 95 91 41 53 88 147 88 176
0 10 18 40 40 66 37 44 40 53 40 106 l0 57 -25 -23 c-14 -13 -27 -22 -28 -19
-2 2 -9 30 -15 62 -19 95 -67 184 -141 258 -105 105 -221 153 -371 152 -140 0
-253 -46 -353 -142 -200 -190 -215 -491 -34 -713 25 -31 43 -58 41 -61 -3 -3
3 -8 14 -12 26 -8 82 -70 117 -129 30 -52 125 -274 125 -293 0 -17 -10 -16
-107 7 -541 130 -813 736 -551 1230 120 227 355 398 600 439 76 12 224 13 294
0z m-416 -669 c17 -17 20 -33 20 -125 0 -122 -12 -145 -76 -145 -71 0 -94 36
-94 146 0 105 25 143 93 144 24 0 44 -7 57 -20z m108 -37 c2 -37 7 -53 17 -53
10 0 15 16 17 53 3 50 4 52 33 52 l30 0 3 -143 3 -143 -33 3 c-33 3 -33 4 -36
61 -2 41 -7 57 -17 57 -10 0 -15 -16 -17 -57 -3 -57 -3 -58 -35 -61 l-33 -3 0
139 c0 76 3 142 7 146 4 4 19 6 33 4 23 -3 25 -8 28 -55z m260 41 c15 -11 22
-25 22 -50 0 -31 -3 -34 -29 -34 -20 0 -30 6 -34 20 -5 20 -37 29 -37 11 0 -5
23 -29 50 -53 65 -55 77 -102 37 -142 -38 -38 -107 -37 -137 1 -30 38 -23 67
17 71 26 3 32 -1 35 -20 2 -13 9 -23 17 -23 30 0 20 26 -28 72 -50 48 -54 57
-52 101 3 54 87 83 139 46z m169 4 c4 -7 14 -51 23 -97 l16 -85 40 0 c33 -1
40 -5 42 -23 4 -27 20 -30 29 -7 4 11 -10 31 -46 64 -43 40 -51 52 -51 83 0
44 37 77 87 77 69 0 115 -91 50 -98 -22 -3 -30 1 -34 17 -3 12 -12 21 -19 21
-27 0 -14 -24 41 -75 65 -60 71 -90 26 -136 -35 -35 -72 -37 -118 -9 -27 16
-33 17 -33 5 0 -10 -11 -15 -34 -15 -28 0 -35 4 -38 22 -4 33 -36 35 -48 4 -7
-20 -16 -26 -40 -26 -16 0 -30 5 -30 11 0 30 45 256 53 267 5 6 24 12 43 12
18 0 36 -6 41 -12z m-399 -435 c-4 -67 -28 -89 -28 -25 0 29 -5 42 -17 47 -17
6 -17 7 1 21 38 27 47 18 44 -43z m96 45 c5 -10 7 -10 12 0 7 15 50 16 60 1 4
-8 9 -8 17 0 14 14 50 14 64 0 8 -8 17 -8 33 1 29 16 33 10 33 -52 0 -41 -4
-54 -17 -56 -13 -3 -16 5 -16 37 0 22 -4 43 -10 46 -6 4 -10 -5 -10 -20 0 -15
-5 -35 -10 -46 -12 -21 -54 -26 -66 -8 -4 8 -9 8 -17 0 -14 -14 -54 -14 -62
-1 -5 8 -11 7 -20 0 -8 -6 -24 -10 -37 -8 -20 3 -23 9 -25 48 -3 61 2 70 36
70 16 0 32 -6 35 -12z m106 -317 c0 -17 -63 -111 -74 -111 -10 0 -56 93 -56
113 0 4 29 7 65 7 36 0 65 -4 65 -9z"/>
<path d="M754 1722 c-8 -5 -8 -29 -1 -84 9 -72 11 -78 33 -78 12 0 26 5 29 10
3 6 -3 10 -14 10 -17 0 -21 6 -21 30 0 20 5 30 15 30 8 0 15 5 15 10 0 6 -9
10 -20 10 -15 0 -20 7 -20 25 0 16 6 25 15 25 8 0 15 5 15 10 0 12 -30 13 -46
2z"/>
<path d="M833 1716 c13 -10 17 -28 17 -80 0 -37 4 -66 10 -66 6 0 10 30 10 70
0 55 3 71 18 79 13 8 7 10 -28 10 -40 0 -43 -1 -27 -13z"/>
<path d="M933 1685 c4 -26 7 -65 7 -87 0 -24 4 -37 10 -33 6 3 10 17 10 31 0
14 9 42 20 64 11 22 20 44 20 50 0 18 -17 11 -23 -10 -7 -26 -27 -26 -27 -1 0
11 -5 23 -12 27 -8 5 -9 -6 -5 -41z"/>
<path d="M683 1709 c-27 -10 -27 -6 -7 -81 8 -33 13 -65 12 -70 -2 -6 -23 19
-47 56 -63 96 -76 82 -50 -51 6 -29 15 -53 21 -53 6 0 8 9 5 20 -3 11 2 25 10
32 12 10 18 9 28 -5 9 -13 20 -16 38 -12 23 6 24 10 16 38 -7 24 -5 33 6 40
19 10 20 28 1 21 -12 -5 -44 33 -34 40 2 2 11 8 22 13 25 13 7 23 -21 12z
m-53 -122 c0 -20 -25 1 -28 24 -2 23 -2 23 13 5 8 -11 15 -24 15 -29z"/>
<path d="M1067 1632 c-29 -73 -31 -82 -19 -82 5 0 15 18 22 40 18 55 29 50 19
-7 -14 -70 -2 -70 49 3 12 17 12 17 7 -6 -4 -14 -9 -35 -12 -47 -4 -15 1 -23
17 -28 14 -4 25 -2 30 5 5 7 16 10 25 6 13 -4 15 -13 11 -32 -5 -18 -3 -25 5
-22 12 4 59 119 59 144 0 28 -30 13 -74 -38 -25 -29 -48 -49 -51 -46 -3 3 5
35 19 71 13 36 22 68 19 71 -15 14 -31 3 -53 -36 -27 -48 -35 -40 -22 20 6 23
7 43 4 47 -16 16 -31 -2 -55 -63z m178 -81 c-3 -12 -13 -21 -21 -21 -18 0 -18
9 3 32 20 22 27 17 18 -11z"/>
<path d="M472 1618 c-25 -25 -3 -57 53 -75 17 -5 32 -18 33 -27 3 -14 -1 -17
-18 -11 -16 5 -21 3 -18 -6 3 -8 16 -14 29 -14 20 0 24 5 24 30 0 23 -6 32
-30 43 -49 21 -59 28 -63 42 -3 9 2 11 23 6 20 -5 26 -3 23 6 -6 18 -40 22
-56 6z"/>
<path d="M1290 1515 c-56 -68 -64 -91 -16 -46 40 39 46 33 17 -15 -19 -32 -19
-32 3 -53 14 -13 29 -18 43 -15 26 7 39 -12 22 -32 -6 -8 -9 -18 -5 -22 8 -7
76 67 97 105 21 39 1 38 -71 -1 -39 -20 -70 -33 -70 -28 0 6 21 33 46 61 53
59 52 82 -2 30 -36 -34 -39 -22 -6 28 13 21 10 43 -6 43 -4 0 -27 -25 -52 -55z
m130 -82 c-1 -18 -30 -44 -41 -38 -8 6 -5 13 12 26 27 21 29 22 29 12z"/>
<path d="M351 1527 c-14 -18 -5 -44 20 -58 11 -5 19 -16 19 -23 0 -7 11 -23
25 -36 l26 -24 24 25 24 24 -25 29 c-20 23 -28 26 -34 15 -10 -15 -9 -16 -30
25 -18 35 -33 42 -49 23z m36 -33 c-9 -9 -28 6 -21 18 4 6 10 6 17 -1 6 -6 8
-13 4 -17z m67 -75 c-4 -6 -11 -6 -20 2 -21 17 -17 31 6 19 11 -6 18 -15 14
-21z"/>
<path d="M260 1421 c0 -5 12 -16 26 -26 18 -12 23 -20 16 -27 -8 -8 -19 -6
-37 6 -29 19 -47 13 -24 -8 41 -38 118 -85 124 -77 3 6 -6 18 -20 27 -26 17
-34 44 -12 44 6 0 21 -7 31 -15 22 -17 36 -19 36 -7 0 10 -117 92 -131 92 -5
0 -9 -4 -9 -9z"/>
<path d="M1434 1358 c-52 -35 -65 -71 -33 -91 18 -12 69 17 69 39 0 20 -14 17
-35 -6 -22 -24 -35 -26 -35 -5 0 15 83 75 103 75 5 0 6 -11 3 -25 -7 -26 3
-32 21 -14 16 16 -5 59 -27 59 -10 0 -40 -15 -66 -32z"/>
<path d="M197 1323 c-22 -41 -21 -46 2 -38 12 3 40 -4 71 -20 45 -23 49 -28
40 -45 -13 -25 -9 -25 -81 6 -34 14 -64 23 -67 19 -9 -9 9 -20 71 -45 31 -12
57 -26 57 -30 0 -5 -34 -8 -76 -7 -46 1 -78 -2 -81 -8 -2 -6 26 -25 62 -43 47
-23 65 -37 65 -51 0 -25 -11 -32 -38 -24 -14 3 -22 14 -23 27 0 21 -1 21 -11
-2 -15 -30 -52 -26 -56 6 -4 29 -22 18 -22 -13 0 -28 14 -33 105 -37 l60 -3 3
39 c2 28 -1 42 -12 48 -24 13 -19 38 7 38 17 0 27 12 45 53 12 28 22 55 22 58
0 3 -27 18 -60 34 -40 19 -60 35 -62 49 -3 18 -6 17 -21 -11z m33 -188 c0 -19
-11 -19 -36 0 -18 14 -18 14 9 15 17 0 27 -5 27 -15z"/>
<path d="M1473 1268 l-63 -30 20 -38 c19 -37 21 -38 52 -29 58 16 64 9 15 -17
-26 -14 -45 -29 -43 -33 3 -5 26 -6 51 -3 56 6 59 -4 5 -18 -45 -12 -56 -34
-12 -24 59 14 124 39 126 49 0 6 -23 12 -53 15 l-54 5 46 22 c34 17 45 27 40
39 -4 10 -13 14 -27 10 -91 -26 -118 -30 -127 -15 -13 21 -11 25 16 37 21 10
27 9 31 -3 9 -22 26 -18 19 4 -8 26 32 51 41 26 3 -8 12 -15 20 -15 11 0 11 5
2 25 -14 31 -28 31 -105 -7z"/>
<path d="M1530 1063 c-57 -5 -64 -13 -56 -57 7 -36 7 -36 58 -36 60 0 58 -6
-7 -23 -25 -7 -47 -16 -48 -22 -3 -14 143 -29 156 -16 8 8 -1 11 -30 11 -58 0
-63 17 -8 25 54 9 63 34 13 37 -18 0 -37 2 -43 3 -5 2 -25 3 -43 4 -29 1 -33
4 -30 24 4 27 45 37 54 13 8 -22 21 -20 27 4 3 11 13 20 22 20 9 0 19 -9 22
-20 8 -30 25 -24 21 8 -3 30 -18 33 -108 25z"/>
<path d="M110 980 c0 -5 16 -10 35 -10 24 0 35 -5 35 -15 0 -10 -11 -15 -35
-15 -19 0 -35 -4 -35 -10 0 -6 33 -10 80 -10 47 0 80 4 80 10 0 6 -16 10 -35
10 -24 0 -35 5 -35 15 0 10 11 15 35 15 19 0 35 5 35 10 0 6 -33 10 -80 10
-47 0 -80 -4 -80 -10z"/>
<path d="M1470 861 c0 -5 28 -14 63 -20 34 -6 67 -18 73 -26 15 -19 24 -9 24
28 0 24 -3 27 -14 18 -9 -8 -28 -8 -66 -1 -65 12 -80 13 -80 1z"/>
<path d="M225 855 c-5 -2 -29 -9 -52 -15 -39 -10 -43 -14 -43 -41 0 -39 16
-43 86 -25 61 16 78 11 72 -20 -3 -20 -48 -33 -48 -15 0 6 -4 11 -10 11 -5 0
-10 -9 -10 -19 0 -26 -31 -36 -47 -15 -18 25 -29 9 -15 -21 l12 -25 52 21 c29
12 63 25 76 30 26 10 26 4 4 64 -26 75 -37 85 -77 70z m40 -35 c0 -10 -66 -33
-113 -40 -2 0 -2 8 0 17 2 11 20 22 48 29 52 14 65 13 65 -6z"/>
<path d="M1447 768 c-9 -5 -17 -17 -17 -27 0 -29 26 -44 62 -37 58 12 71 11
75 -1 3 -7 -2 -13 -11 -13 -9 0 -16 -5 -16 -11 0 -6 10 -9 23 -7 16 2 22 10
22 27 0 36 -26 47 -73 32 -39 -13 -62 -9 -62 10 0 5 9 9 20 9 11 0 20 4 20 9
0 14 -25 20 -43 9z"/>
<path d="M253 679 c-57 -26 -87 -49 -65 -49 18 0 142 62 142 71 0 13 -8 11
-77 -22z"/>
<path d="M1400 671 c0 -5 12 -17 28 -26 15 -10 41 -34 59 -54 17 -20 34 -33
39 -28 4 4 -3 19 -17 33 l-24 27 32 -6 c18 -4 35 -2 38 3 3 5 -19 14 -49 20
-29 6 -62 17 -72 25 -22 17 -34 19 -34 6z"/>
<path d="M321 632 c-18 -12 -25 -14 -29 -4 -2 6 -11 12 -19 12 -12 0 -13 -3
-4 -14 18 -22 -14 -44 -41 -27 -11 7 -22 10 -25 8 -6 -7 20 -47 31 -47 15 0
136 73 136 82 0 13 -23 8 -49 -10z"/>
<path d="M1362 618 c-31 -31 -5 -68 49 -68 43 0 69 -8 69 -21 0 -5 -9 -9 -20
-9 -21 0 -27 -15 -9 -25 10 -7 49 21 49 34 -1 22 -25 36 -71 41 -50 5 -83 30
-40 30 25 0 28 15 5 24 -20 8 -18 8 -32 -6z"/>
<path d="M310 573 c-36 -25 -59 -48 -52 -51 13 -4 132 76 132 89 0 17 -16 9
-80 -38z"/>
<path d="M365 535 c-32 -28 -56 -42 -67 -39 -23 7 -22 -5 1 -33 23 -28 31 -29
31 -5 0 9 23 38 51 63 29 25 48 48 43 52 -5 3 -32 -14 -59 -38z"/>
<path d="M1300 541 c0 -6 23 -29 50 -52 40 -33 49 -47 44 -63 -5 -18 -2 -17
25 8 36 34 38 40 14 32 -12 -4 -33 9 -63 39 -43 42 -70 56 -70 36z"/>
<path d="M423 514 c-10 -14 -30 -37 -45 -51 -34 -32 -35 -44 -7 -69 21 -19 21
-19 70 36 45 51 50 54 65 39 23 -24 3 -60 -28 -51 -20 5 -21 3 -10 -11 21 -24
-2 -61 -28 -47 -11 6 -20 7 -20 2 0 -12 22 -32 36 -32 13 0 94 108 94 125 0 5
-15 20 -34 32 l-34 22 -23 -25 c-15 -16 -26 -21 -33 -14 -6 6 -2 17 12 33 24
25 28 37 12 37 -5 0 -17 -12 -27 -26z m-5 -76 c-6 -16 -36 -34 -44 -25 -9 9
15 37 33 37 8 0 13 -5 11 -12z"/>
<path d="M1231 486 l-22 -24 21 -43 21 -44 -36 38 c-43 45 -60 41 -39 -9 21
-50 13 -64 -11 -20 -19 34 -35 47 -35 27 0 -16 70 -131 80 -131 18 0 19 19 5
60 -8 24 -13 45 -11 47 2 3 17 -12 33 -31 28 -36 47 -44 57 -27 4 5 -10 37
-30 71 -35 59 -36 61 -18 75 17 13 21 12 37 -7 12 -15 15 -24 7 -32 -17 -17
-11 -27 9 -17 27 15 50 -13 33 -40 -10 -15 -9 -19 2 -19 7 0 19 7 26 15 11 13
5 25 -32 73 -25 31 -52 58 -60 60 -8 1 -24 -8 -37 -22z"/>
<path d="M557 434 c-14 -14 -7 -25 13 -19 26 8 25 -4 -2 -60 -21 -44 -48 -60
-48 -30 0 8 -5 15 -11 15 -6 0 -9 -10 -7 -22 2 -16 11 -24 30 -26 24 -3 30 3
53 48 30 59 30 94 0 98 -12 2 -24 0 -28 -4z"/>
<path d="M530 1011 c0 -87 12 -120 25 -68 10 39 1 150 -12 155 -10 3 -13 -19
-13 -87z"/>
<path d="M1087 1021 c-7 -35 -5 -46 10 -40 4 2 6 20 3 39 l-6 35 -7 -34z"/>
<path d="M790 740 c0 -5 5 -10 11 -10 5 0 7 5 4 10 -3 6 -8 10 -11 10 -2 0 -4
-4 -4 -10z"/>
<path d="M870 710 c0 -25 4 -39 10 -35 6 3 10 19 10 35 0 16 -4 32 -10 35 -6
4 -10 -10 -10 -35z"/>
<path d="M950 710 c0 -25 4 -39 10 -35 6 3 10 19 10 35 0 16 -4 32 -10 35 -6
4 -10 -10 -10 -35z"/>
<path d="M790 685 c0 -8 5 -15 10 -15 6 0 10 7 10 15 0 8 -4 15 -10 15 -5 0
-10 -7 -10 -15z"/>
</g>
</svg>
