<?xml version="1.0" standalone="no"?>
<!DOCTYPE svg PUBLIC "-//W3C//DTD SVG 20010904//EN"
 "http://www.w3.org/TR/2001/REC-SVG-20010904/DTD/svg10.dtd">
<svg version="1.0" xmlns="http://www.w3.org/2000/svg"
 width="360.000000pt" height="360.000000pt" viewBox="0 0 360.000000 360.000000"
 preserveAspectRatio="xMidYMid meet">

<g transform="translate(0.000000,360.000000) scale(0.100000,-0.100000)"
fill="#000000" stroke="none">
<path d="M3198 2599 c-9 -20 -40 -65 -70 -100 -94 -111 -128 -160 -128 -184 0
-34 -18 -40 -39 -13 -16 19 -23 21 -47 13 -39 -14 -53 -55 -30 -89 22 -34 60
-34 82 -1 19 30 34 32 34 6 0 -17 4 -18 37 -11 100 23 152 114 174 303 12 103
8 126 -13 76z"/>
<path d="M1138 2570 c-166 -30 -298 -162 -353 -352 l-16 -58 -80 0 -79 0 0
-35 0 -35 75 0 c41 0 75 -3 75 -7 0 -5 -31 -193 -68 -419 -59 -356 -72 -419
-98 -470 -18 -37 -42 -68 -64 -82 -31 -21 -44 -23 -105 -19 -38 2 -77 8 -86
11 -18 8 -84 -68 -74 -84 8 -13 129 -13 175 0 150 41 257 188 321 440 22 83
109 578 109 616 0 22 -4 24 -45 24 -41 0 -45 2 -45 24 0 23 4 25 52 28 l52 3
22 105 c24 123 33 145 70 189 51 61 136 78 207 42 l36 -18 41 44 c23 25 39 47
37 50 -10 9 -114 11 -159 3z"/>
<path d="M2880 2160 c0 -5 5 -10 10 -10 6 0 10 5 10 10 0 6 -4 10 -10 10 -5 0
-10 -4 -10 -10z"/>
<path d="M3300 2131 c-12 -24 -13 -31 -1 -31 5 0 11 11 13 25 6 30 2 32 -12 6z"/>
<path d="M3150 1999 c0 -5 5 -7 10 -4 6 3 10 8 10 11 0 2 -4 4 -10 4 -5 0 -10
-5 -10 -11z"/>
<path d="M1168 1936 c-48 -13 -62 -21 -111 -65 -58 -52 -82 -139 -58 -204 5
-14 39 -61 75 -105 87 -107 106 -140 106 -185 0 -29 -7 -46 -29 -68 -40 -40
-104 -40 -183 0 l-57 29 -36 -44 -36 -44 28 -11 c63 -24 136 -31 197 -19 75
15 101 28 148 77 44 45 58 79 58 137 0 52 -19 89 -96 191 -105 137 -116 180
-65 237 27 30 35 33 86 33 50 0 60 -3 81 -28 14 -16 24 -41 24 -58 0 -23 4
-30 17 -27 12 2 21 21 30 63 7 33 10 65 8 72 -5 14 -69 33 -110 32 -16 0 -51
-6 -77 -13z"/>
<path d="M1709 1937 c-128 -48 -192 -141 -168 -246 7 -33 31 -71 86 -140 88
-109 109 -156 93 -207 -23 -68 -109 -83 -203 -36 l-56 29 -36 -37 c-19 -20
-35 -41 -35 -47 0 -16 96 -37 171 -37 161 0 285 130 250 261 -6 21 -47 87 -91
147 -44 59 -84 124 -89 143 -27 95 82 168 170 116 28 -17 46 -53 41 -80 -3
-15 17 -28 28 -17 5 5 16 37 24 72 14 59 13 63 -5 72 -32 18 -141 22 -180 7z"/>
<path d="M2406 1930 c-88 -16 -168 -64 -245 -147 -109 -116 -164 -248 -164
-392 1 -194 129 -240 274 -99 62 60 126 143 155 200 13 26 29 48 35 48 6 0 8
-7 5 -16 -16 -40 -38 -215 -32 -248 13 -70 85 -86 171 -37 56 32 145 122 145
146 0 23 -14 18 -38 -14 -28 -38 -104 -91 -131 -91 -46 0 -45 19 20 362 29
153 50 280 47 283 -10 10 -193 14 -242 5z m78 -82 l38 -9 -6 -52 c-16 -124
-184 -394 -283 -454 -77 -46 -113 -19 -113 83 0 79 31 199 76 296 69 145 133
176 288 136z"/>
<path d="M2866 1901 c-16 -3 -31 -12 -34 -18 -4 -15 14 -17 23 -3 4 6 10 8 14
6 8 -5 38 11 31 17 -3 2 -18 1 -34 -2z"/>
<path d="M2928 1893 c7 -3 16 -2 19 1 4 3 -2 6 -13 5 -11 0 -14 -3 -6 -6z"/>
<path d="M2991 1754 c0 -11 3 -14 6 -6 3 7 2 16 -1 19 -3 4 -6 -2 -5 -13z"/>
<path d="M2971 1644 c0 -11 3 -14 6 -6 3 7 2 16 -1 19 -3 4 -6 -2 -5 -13z"/>
<path d="M3081 1614 c0 -11 3 -14 6 -6 3 7 2 16 -1 19 -3 4 -6 -2 -5 -13z"/>
<path d="M2952 1525 c0 -16 2 -22 5 -12 2 9 2 23 0 30 -3 6 -5 -1 -5 -18z"/>
<path d="M3061 1504 c0 -11 3 -14 6 -6 3 7 2 16 -1 19 -3 4 -6 -2 -5 -13z"/>
<path d="M3190 1235 c-46 -45 -33 -45 16 0 22 19 35 34 29 34 -5 0 -26 -16
-45 -34z"/>
<path d="M3021 1234 c0 -11 3 -14 6 -6 3 7 2 16 -1 19 -3 4 -6 -2 -5 -13z"/>
<path d="M2911 1184 c-1 -20 27 -54 44 -54 4 0 -1 8 -12 18 -11 9 -23 26 -26
37 -4 19 -5 19 -6 -1z"/>
<path d="M3130 1185 c0 -8 2 -15 4 -15 2 0 6 7 10 15 3 8 1 15 -4 15 -6 0 -10
-7 -10 -15z"/>
<path d="M530 1034 c-14 -8 -41 -20 -60 -28 -31 -13 136 -14 1297 -15 1307 -1
1332 -1 1343 18 5 11 10 24 10 30 0 8 -381 11 -1282 10 -1083 -1 -1287 -3
-1308 -15z"/>
</g>
</svg>
